<svg width="756" height="756" viewBox="0 0 756 756" fill="none" xmlns="http://www.w3.org/2000/svg">
    <circle cx="378" cy="378" r="378" fill="#F1DEC1" />
    <path d="M127.39 483.722C112.984 448.203 106.505 411.599 107.029 373.703C108.814 244.704 203.506 132.228 329.54 109.409C455.209 86.657 579.283 153.647 629.022 271.312C640.712 298.966 646.877 327.974 649.024 357.93C652.469 405.966 644.305 451.994 623.342 495.17C585.87 572.346 525.007 621.91 441.793 642.739C323.953 672.235 199.908 617.991 141.241 512.309C136.157 503.151 131.473 493.793 127.39 483.722Z" fill="#566500" />
    <path d="M321.519 532.964C315.149 535.738 311.458 540.652 306.82 545.404C305.208 526.461 312.107 511.56 324.28 498.378C337.351 484.225 354.237 477.769 372.262 473.306C382.792 470.699 392.999 467.267 402.6 461.389C405.8 456.486 410.956 454.365 414.866 450.772C423.543 442.798 430.722 433.698 436.813 423.725C460.359 385.175 473.487 342.973 480.28 298.594C481.284 292.033 482.108 285.446 483.504 278.952C483.664 278.303 482.383 278.987 483.046 278.916C483.127 278.907 483.166 279.001 483.137 279.194C480.786 294.863 476.274 309.98 471.039 324.868C460.283 355.457 446.739 384.701 428.209 411.461C426.89 413.365 425.829 415.5 423.354 416.82C422.068 417.616 419.034 415.576 420.308 419.408C419.293 425.015 415.052 428.173 411.68 431.622C406.115 437.313 399.871 442.374 392.997 446.54C391.113 447.682 389.164 448.548 386.549 448.485C384.284 448.373 381.92 447.251 381.41 450.901C379.56 453.37 377.287 454.297 374.233 454.302C373.539 454.19 373.226 454.085 372.911 453.992C368.311 452.636 354.774 456.127 351.097 459.798C349.448 460.504 348.054 460.961 346.293 461.46C343.466 460.185 340.988 460.711 338.873 462.028C335.589 464.072 332.314 466.188 329.475 469.213C326.171 472.054 322.868 474.553 319.248 477.163C315.338 477.781 315.722 475.506 317.319 474.135C320.034 471.805 319.915 469.715 319.092 466.484C318.196 462.97 317.909 458.783 322.91 457.126C324.51 456.596 325.187 454.798 326.516 453.33C326.692 453.029 326.771 453.144 326.709 453.111C330.929 451.901 334.991 450.264 338.573 447.065C344.169 444.066 349.978 442.351 356.294 440.909C357.283 441.074 357.852 441.074 358.62 440.532C378.322 435.32 394.028 424.313 407.641 409.436C408.612 407.798 408.84 405.953 411.16 405.609C414.009 406.247 413.365 404.174 413.816 402.651C415.546 396.804 420.465 393.46 423.223 388.269C423.509 387.778 423.618 387.578 423.913 387.094C424.229 386.623 424.359 386.436 424.881 385.681C425.635 384.499 426.013 383.894 426.535 382.934C448.316 350.298 461.549 314.573 469.659 276.818C472.707 262.633 474.299 248.097 473.974 233.687C473.407 208.547 468.886 184.044 456.942 161.443C456.708 161 456.612 160.503 456.518 159.61C460.48 156.175 464.546 153.275 468.346 150.061C470.387 148.334 471.12 149.197 471.877 151.05C474.262 156.89 476.882 162.647 478.952 168.597C480.067 171.802 481.726 173.743 484.784 175.371C534.011 201.583 570.448 239.545 591.173 291.828C594.733 300.808 597.308 310.089 599.704 319.819C599.416 320.575 599.016 320.735 598.271 320.409C573.675 270.901 535.397 236.529 485.233 214.376C485.437 218.712 485.705 222.67 485.773 226.63C485.804 228.445 486.999 229.245 488.149 230.181C534.484 267.925 562.71 316.607 575.321 374.682C579.761 395.129 581.761 415.929 580.385 436.729C579.303 453.089 573.264 468.552 566.07 483.207C535.416 545.655 485.173 583.159 417.727 598.164C392.035 603.88 366.136 603.185 340.253 599.163C338.388 598.873 336.816 598.175 335.385 596.887C327.771 590.03 321.381 582.27 316.485 573.197C312.574 565.95 312.111 559.078 317.054 551.828C320.291 545.781 325.832 544.486 331.55 543.875C338.742 543.107 345.395 545.05 351.639 548.618C358.585 552.587 365.09 557.248 371.971 561.334C389.546 571.768 408.192 574.691 428.225 570.948C454.175 566.101 476.491 554.133 496.327 537.151C526.187 511.588 543.526 478.656 552.563 440.9C552.679 440.413 552.735 439.919 552.603 439.381C551.845 438.54 551.126 439.207 550.472 439.559C534.285 448.254 517.173 450.451 499.13 447.417C486.248 445.25 473.693 442.063 461.733 436.831C457.688 435.061 455.322 436.018 453.055 439.587C446.607 449.737 439.327 459.181 430.216 467.211C414.9 480.708 396.672 487.988 377.268 492.966C371.465 494.455 365.659 495.855 360.105 498.256C346.99 503.926 337.011 513.209 328.792 524.635C327.043 527.066 325.596 529.715 323.245 532.183C322.732 532.584 322.51 532.723 321.519 532.964Z" fill="#F1DEC1" />
    <path d="M163.849 446.716C173.985 459.124 185.335 469.482 200.778 474.107C218.853 479.522 235.961 475.468 252.555 467.902C260.142 464.443 262.039 461.082 261.388 452.905C261.17 450.171 258.883 450.704 257.348 450.3C232.664 443.8 210.445 432.614 191.539 415.333C171.415 396.94 156.849 375.115 151.448 347.952C149.364 337.469 148.608 326.857 149.867 315.75C152.486 315.31 151.989 317.476 152.32 318.91C162.599 363.384 187.889 396.419 227.987 418.114C237.827 423.438 248.138 427.695 258.989 430.566C264.568 432.043 265.222 431.738 267.027 426.434C269.528 419.088 269.567 419.022 262.77 415.053C250.304 407.776 238.95 399.168 229.854 387.835C227.356 384.724 224.277 382.927 220.326 381.984C209.929 379.502 199.935 375.764 190.342 371.044C188.043 369.912 184.253 368.535 185.116 365.864C186.15 362.661 189.714 364.814 192.116 365.283C200.117 366.846 208.031 368.849 216.475 370.214C216.636 368.251 215.427 367.022 214.667 365.686C210.957 359.154 207.025 352.584 205.31 345.305C203.019 335.583 197.241 328.855 189.696 322.983C181.221 316.387 174.387 308.186 168.04 299.583C166.667 297.722 165.186 295.851 165.251 292.97C165.484 292.391 165.631 292.183 166.13 291.819C169.38 291.497 170.875 293.717 172.684 295.359C180.3 302.272 188.045 309.023 197.076 315.701C194.151 296.066 194.872 277.384 199.254 258.926C201.167 250.867 202.817 242.658 207.725 235.289C208.326 235.073 208.59 235.065 209.143 235.331C210.772 238.054 209.871 240.486 209.334 242.9C201.887 276.401 205.228 308.767 219.56 339.965C220.499 342.011 221.185 344.276 223.002 345.874C224.918 344.613 225.081 342.667 225.699 341.021C229.508 330.885 233.863 320.962 237.53 310.771C237.868 309.83 238.263 308.909 238.88 308.108C239.4 307.433 240.008 306.841 240.942 306.965C242.184 307.129 242.542 308.124 242.567 309.136C242.655 312.636 242.447 316.124 241.924 319.592C240.131 331.492 237.058 343.087 233.183 354.446C231.727 358.717 232.269 361.93 235.139 365.415C245.532 378.031 257.88 388.186 272.591 396.591C272.772 393.757 271.207 392.403 270.104 390.962C254.541 370.63 248.24 347.072 246.267 322.078C242.87 279.075 253.54 238.513 267.967 198.618C271.997 187.473 277.253 176.877 282.166 166.126C283.412 163.397 284.881 160.764 287.671 158.648C291.228 156.581 294.863 156.419 298.977 155.458C289.692 175.021 282.272 194.556 276.417 214.678C266.873 247.478 260.851 280.788 262.879 315.106C264.073 335.321 269.235 354.466 280.544 371.596C282.548 374.632 284.556 377.677 286.85 379.773C296.424 372.721 296.43 364.479 293.232 353.43C282.559 316.553 286.332 279.884 299.118 244.094C310.148 213.219 325.557 184.679 349.074 161.452C367.506 143.248 363.585 145.886 388.162 147.015C410.422 148.037 431.912 153.235 453.384 160.224C454.114 163.487 451.372 163.982 449.507 165.079C433.658 174.404 416.554 181.015 399.61 187.953C383.717 194.461 367.924 201.23 353.677 210.927C322.459 232.177 306.937 261.927 306.356 299.625C306.123 314.757 308.431 329.486 312.879 343.899C314.401 348.833 315.16 348.983 319.388 346.217C321.534 344.812 323.176 343.004 324.378 340.748C337.958 315.269 355.101 292.463 375.99 272.533C379.414 269.266 380.611 265.404 381.156 261.022C382.807 247.765 385.74 234.787 389.825 222.07C390.843 218.899 392.038 215.785 393.542 212.807C394.142 211.619 394.963 210.058 396.34 210.311C398.144 210.642 398.133 212.547 397.992 214.027C397.485 219.328 396.916 224.625 396.229 229.905C395.094 238.637 394.371 247.421 392.764 256.801C409.914 239.036 426.498 221.635 439.649 201.304C440.901 199.37 441.852 197.157 444.348 195.808C444.979 195.745 445.235 195.779 445.815 196.027C447.332 198.669 446.107 200.822 445.22 202.917C439.798 215.715 432.36 227.348 424.276 238.582C416.295 249.674 407.598 260.193 398.492 270.378C397.519 271.467 396.263 272.405 395.935 274.546C403.312 274.724 410.511 273.635 417.723 273.117C420.883 272.891 424.027 272.54 427.185 272.825C428.617 272.955 430.519 272.936 430.753 274.813C430.973 276.57 429.319 277.328 427.936 277.875C421.575 280.389 415.032 282.358 408.356 283.805C401.689 285.249 395.006 286.659 388.143 286.932C385.266 287.047 382.594 287.813 380.499 290.065C367.993 303.509 356.555 317.772 347.028 333.509C346.772 333.932 346.61 334.405 346.664 335.29C348.544 336.003 350.403 335.053 352.196 334.644C376.102 329.182 399.486 331.282 422.482 339.335C425.002 340.217 427.461 341.241 429.795 342.535C430.785 343.084 432.174 343.664 431.732 345.053C431.35 346.252 429.963 346.483 428.774 346.501C425.607 346.551 422.503 345.846 419.327 345.769C386.293 344.973 357.824 356.569 332.57 377.266C321.251 386.544 311.755 397.346 303.798 409.579C302.451 411.65 301.406 413.996 298.857 415.556C289.788 429.145 284.61 444.048 281.488 459.592C272.425 504.71 279.113 546.932 305.621 585.278C307.37 587.808 309.244 590.252 310.611 593.142C237.458 569.128 188.128 520.908 162.996 447.612C163.111 447.056 163.287 446.866 163.849 446.716Z" fill="#F1DEC1" />
    <path d="M298.807 415.956C304.205 404.242 312.111 394.39 321.14 385.484C339.361 367.51 360.43 354.214 385.464 347.874C400.267 344.126 415.283 342.878 430.545 344.949C417.233 337.717 402.703 334.924 387.903 333.548C372.872 332.151 358.076 334.339 343.679 338.329C342.568 336.594 343.787 335.811 344.302 334.926C354.329 317.703 366.962 302.452 380.212 287.677C382.443 285.189 385.667 285.523 388.587 285.301C402.298 284.256 415.446 280.815 428.312 276.14C428.903 275.925 429.424 275.517 429.862 274.115C417.457 274.911 405.053 275.707 391.099 276.603C412.938 251.383 434.012 227.167 446.286 196.546C446.211 195.503 445.791 195.416 444.983 195.975C432.136 218.113 403.427 249.413 391.011 259.673C392.962 243.425 394.888 227.382 396.814 211.339C391.665 219.737 389.18 228.987 386.89 238.284C384.663 247.328 383.213 256.527 382.079 265.764C381.819 267.881 381.159 269.435 379.614 270.935C357.723 292.182 338.926 315.784 325.056 343.099C323.01 347.129 318.731 348.425 315.338 350.617C312.88 352.206 312.835 348.767 312.363 347.378C306.137 329.03 303.424 310.116 305.061 290.833C307.547 261.535 319.416 236.71 342.146 217.567C357.236 204.858 374.897 196.634 392.889 189.067C412.361 180.878 432.228 173.562 450.525 162.798C451.523 162.21 452.477 161.547 453.598 160.622C454.466 159.943 455.188 159.562 456.217 159.194C461.472 163.647 463.021 169.956 465.116 175.791C474.651 202.343 477.614 229.652 474.036 257.702C468.224 303.269 452.838 345.295 427.68 384.046C426.682 384.458 426.347 385.008 426.051 386.024C425.866 386.313 425.862 386.245 425.895 386.253C425.647 386.443 425.396 386.662 425.031 387.119C424.886 387.323 424.863 387.25 424.895 387.271C418.922 393.623 413.162 400.235 404.935 404.448C397.461 407.995 390.889 412.532 383.453 415.508C355.409 426.732 327.327 427.365 298.807 415.956Z" fill="#566500" />
    <path d="M165.606 292.222C171.276 303.433 179.939 311.952 188.788 320.285C192.295 323.588 196.115 326.559 199.791 329.683C201.062 330.762 202.348 331.812 202.829 333.534C206.48 346.606 212.233 358.759 218.965 370.487C219.188 370.875 219.174 371.399 219.414 372.553C207.915 370.121 196.766 367.762 185.617 365.404C191.61 370.879 199.09 373.396 206.388 376.186C210.57 377.785 214.864 379.403 219.251 380.079C224.928 380.954 228.744 383.893 232.259 388.17C241.798 399.776 253.627 408.666 266.924 415.502C270.554 417.368 271.067 419.291 269.817 422.839C265.331 435.571 268.729 435.464 255.06 430.991C201.386 413.429 166.323 377.714 151.52 322.8C150.919 320.569 150.738 318.224 150.131 315.628C150.211 299.301 154.242 283.987 160.388 269.437C184.648 212.008 227.765 175.81 287.587 158.397C277.641 178.188 268.779 198.604 262.206 219.949C253.216 249.137 246.685 278.859 247.154 309.548C247.567 336.49 252.651 362.464 268.113 385.393C270.065 388.287 272.215 391.049 274.307 393.846C275.336 395.222 276.467 396.637 275.081 398.294C273.646 400.01 272.303 398.406 271.158 397.755C255.483 388.845 242.13 377.25 231.025 363.029C229.387 360.932 229.929 359.223 230.654 357.056C235.983 341.128 240.524 325.016 240.516 307.816C235.008 321.849 229.501 335.882 224.015 349.86C222.228 349.675 222.006 348.369 221.521 347.44C207.868 321.294 201.797 293.657 204.531 264.104C205.407 254.633 207.387 245.403 208.896 235.681C202.365 248.405 199.666 262.528 197.845 276.892C196.095 290.695 197.235 304.437 198.983 319.09C187.139 310.618 176.854 301.59 166.64 291.969C166.344 291.825 165.915 291.89 165.915 291.89C165.915 291.89 165.563 291.651 165.476 291.672C165.389 291.693 165.557 292.037 165.606 292.222Z" fill="#566500" />
    <path d="M321.722 532.114C325.439 526.859 328.781 521.664 332.696 516.943C343.371 504.069 357.063 496.033 373.346 492.236C391.13 488.089 408.224 482.272 423.019 471.052C435.417 461.65 445.144 449.907 453.107 436.667C455.048 433.44 456.827 432.923 460.275 434.512C475.684 441.613 491.988 445.608 508.849 446.961C525.076 448.264 540.225 444.444 554.119 435.513C555.26 436.866 554.83 438.178 554.56 439.351C546.217 475.554 530.297 507.708 502.953 533.38C481.528 553.495 456.694 567.302 427.4 572.718C404.596 576.935 384.233 571.52 365.191 559.126C357.819 554.328 350.863 548.697 342.146 546.344C333.257 543.944 324.994 544.967 317.518 551.384C317.066 545.31 319.85 539.756 320.901 533.462C320.75 533.066 320.825 533.132 320.789 533.166C321.099 532.995 321.381 532.722 321.722 532.114Z" fill="#566500" />
    <path d="M326.357 453.115C326.708 455.366 325.68 457.238 323.833 458.528C319.494 461.56 318.991 465.228 322.675 469.356C323.781 470.595 322.995 470.984 322.202 471.591C320.892 472.595 319.565 473.576 318.28 474.612C317.255 475.438 316.523 476.329 318.619 477.216C308.583 487.217 299.388 498.022 293.566 511.676C290.709 493.456 305.696 466.675 326.357 453.115Z" fill="#F1DEC1" />
    <path d="M404.719 404.845C411.136 398.732 417.681 392.981 424.577 387.26C422.704 392.725 418.299 396.622 414.939 401.633C414.153 403.277 413.801 404.86 411.862 405.532C410.486 406.663 409.438 407.775 408.094 409.013C406.814 407.828 405.831 406.516 404.719 404.845Z" fill="#566500" />
    <path d="M373.966 453.247C373.596 453.781 372.891 454.111 371.957 454.634C365.015 456.567 358.303 458.308 351.217 460.048C350.267 456.176 353.216 454.712 355.856 454.595C360.591 454.384 364.874 452.819 369.28 451.553C371.19 451.004 372.468 451.708 373.966 453.247Z" fill="#F1DEC1" />
    <path d="M329.791 469.455C328.429 468.897 327.322 467.307 328.575 466.98C333.114 465.799 335.181 461.036 339.604 459.9C341.765 459.345 344.012 458.165 345.836 461.12C340.653 464.119 335.38 466.736 329.791 469.455Z" fill="#F1DEC1" />
    <path d="M338.314 446.82C337.387 450.932 333.445 453.214 327.076 453.125C329.99 450.243 334.035 448.699 338.314 446.82Z" fill="#F1DEC1" />
    <path d="M598.062 320.515C598.399 320.19 598.782 320.212 599.45 320.217C600.29 321.703 601.279 323.127 600.59 324.909C598.951 324.022 598.932 322.192 598.062 320.515Z" fill="#F1DEC1" />
    <path d="M164.172 446.467C164.019 446.839 163.803 446.922 163.261 447.126C162.236 446.333 161.804 445.359 162.169 443.656C163.003 444.74 163.556 445.46 164.172 446.467Z" fill="#F1DEC1" />
    <path d="M358.562 440.304C358.592 441.335 358.379 442.405 356.844 441.126C357.222 440.667 357.748 440.466 358.562 440.304Z" fill="#F1DEC1" />
    <path d="M601.38 326.829C601.414 326.907 601.307 327.138 601.307 327.138C601.307 327.138 601.346 326.751 601.38 326.829Z" fill="#F1DEC1" />
    <path d="M530.075 408.103C538.858 409.541 547.056 411.537 555.178 414.247C536.549 438.997 495.272 437.28 468.522 410.867C477.654 405.899 509.873 403.666 530.075 408.103Z" fill="#566500" />
    <path d="M386.379 447.937C385.316 449.038 383.918 449.814 382.228 450.668C380.714 450.138 379.37 449.31 380.525 447.864C382.106 445.884 384.126 446.049 386.379 447.937Z" fill="#F1DEC1" />
    <path d="M421.996 416.636C421.688 417.699 421.18 418.42 420.433 419.261C419.12 418.529 416.453 418.6 417.728 416.331C418.625 414.737 420.413 414.974 421.996 416.636Z" fill="#F1DEC1" />
    <path d="M411.681 405.908C412.445 404.443 413.355 403.334 414.548 402.08C414.834 403.249 414.888 404.566 414.827 405.878C414.784 406.799 415.189 408.149 414.024 408.434C412.503 408.806 412.51 407.065 411.681 405.908Z" fill="#F1DEC1" />
    <path d="M426.164 386.157C426.173 385.723 426.48 385.133 427.104 384.385C427.102 384.818 426.783 385.41 426.164 386.157Z" fill="#566500" />
    <path d="M321.551 531.995C321.692 532.254 321.548 532.669 321.079 533.142C320.924 532.851 321.096 532.501 321.551 531.995Z" fill="#566500" />
    <path d="M425.177 387.308C425.038 386.987 425.19 386.652 425.635 386.288C425.774 386.605 425.621 386.949 425.177 387.308Z" fill="#566500" />
    <path d="M445.168 196.182C444.891 195.69 444.931 195.144 445.206 194.773C445.81 193.958 445.987 192.032 447.354 192.813C448.556 193.5 447.42 194.826 446.647 195.987C446.155 196.194 445.872 196.201 445.168 196.182Z" fill="#566500" />
    <path d="M448.635 190.306C448.448 190.436 448.267 190.376 448.086 190.316C448.271 190.249 448.456 190.183 448.635 190.306Z" fill="#566500" />
    <path d="M208.874 235.276C208.995 234.841 209.099 234.388 209.204 233.936C209.853 234.27 209.558 234.665 209.048 235.144C208.819 235.23 208.858 235.258 208.874 235.276Z" fill="#F1DEC1" />
    <path d="M165.828 292.263C165.343 291.878 165.031 291.35 164.775 290.542C165.246 290.621 165.661 290.978 166.21 291.58C166.344 291.825 166.001 292.118 165.828 292.263Z" fill="#F1DEC1" />
    <path d="M164.87 290.22C164.654 290.129 164.223 290.036 164.227 289.977C164.262 289.539 164.465 289.505 164.778 290.065C164.832 290.263 164.856 290.234 164.87 290.22Z" fill="#F1DEC1" />
    <path d="M333.656 532.33C346.957 523.585 361.956 519.803 377.039 516.348C387.572 513.935 398.259 512.302 409.011 511.186C411.948 510.881 413.693 509.497 415.191 506.933C421.91 495.437 429.214 484.324 438.424 474.251C434.728 485.924 428.379 496.51 422.912 507.892C434.268 507.96 444.774 503.746 455.508 500.513C457.061 500.045 457.655 498.529 458.525 497.331C466.42 486.469 474.619 475.844 483.535 465.389C482.841 471.816 478.76 477.015 475.801 482.698C473.508 487.102 470.729 491.253 468.134 495.569C469.799 497.011 471.029 495.65 472.216 495.146C488.072 488.423 503.023 480.218 515.69 468.316C516.283 467.758 517.065 467.401 518.092 466.872C518.591 466.836 518.758 466.879 518.985 467.172C512.364 476.513 503.697 483.502 494.749 490.149C481.727 499.824 467.584 507.516 452.515 513.513C451.76 513.813 451.057 514.245 449.669 514.953C464.343 520.12 478.887 523.014 493.542 525.579C477.937 527.116 462.479 526.394 447.312 522.682C439.768 520.836 432.604 519.977 424.853 522.003C414.533 524.701 403.745 524.595 393.14 524.941C373.478 525.584 354.038 527.469 334.591 532.598C334.01 532.628 333.824 532.618 333.656 532.33Z" fill="#F1DEC1" />
    <path d="M521.614 463.5C521.987 462.409 522.387 461.171 523.138 461.685C524.311 462.486 523.004 463.282 522.19 464.146C521.74 464.13 521.561 463.959 521.614 463.5Z" fill="#566500" />
    <path d="M334.067 532.49C333.631 532.753 332.786 533.154 332.557 532.928C332.036 532.416 332.827 532.356 333.403 532.099C333.674 532.051 333.937 532.342 334.067 532.49Z" fill="#F1DEC1" />
    <path d="M438.652 474.082C438.794 473.596 439.031 473.185 439.269 472.773C439.848 473.153 439.634 473.59 439.146 474.171C438.933 474.309 438.746 474.156 438.652 474.082Z" fill="#F1DEC1" />
    <path d="M521.594 463.272C521.852 463.393 521.857 463.575 521.891 464.028C521.92 464.3 521.53 464.493 521.145 464.329C520.953 463.888 521.147 463.61 521.594 463.272Z" fill="#F1DEC1" />
    <path d="M483.851 465.258C483.941 465.243 484.019 465.211 483.952 465.196C483.807 465.213 483.839 465.241 483.851 465.258Z" fill="#F1DEC1" />
    <path d="M521.012 464.407C520.889 464.696 520.684 464.905 520.479 465.113C520.437 464.868 520.395 464.622 520.556 464.271C520.76 464.166 520.928 464.326 521.012 464.407Z" fill="#F1DEC1" />
    <path d="M518.576 466.954C518.748 466.659 519.071 466.526 519.395 466.392C519.413 466.632 519.432 466.871 519.248 467.267C519.045 467.423 518.728 467.115 518.576 466.954Z" fill="#F1DEC1" />
    <path d="M524.287 459.849C524.232 459.766 524.446 459.729 524.446 459.729C524.446 459.729 524.342 459.933 524.287 459.849Z" fill="#566500" />
    <path d="M422.839 508.234C422.71 508.225 423.056 509.162 422.698 508.31C422.855 508.248 422.846 508.24 422.839 508.234Z" fill="#566500" />
</svg>