<svg focusable="false" width="1446" height="468" fill="none" xmlns="http://www.w3.org/2000/svg">
    <path d="M1170.27 467.68l-.45-29.58c2.29-.31 2.56-1.82.41-2.32-15.87-3.65-58.09-14-99.3-24.18l-1.5-7.15s-.68 3.43-1.18 6l-2.12-4.2-1.58 3.76-1.83-7.71s-1 3.68-1.94 6.78l-.21-.05-1.57-13.16-2.47 12.13h-.09l-2.34-7.48-1.87 6.44-11.71-2.9-1.79-9.34s-.68 3.73-1.18 6.55l-2.12-4.58-1.61 4.17-1.85-8.49s-1.17 4.47-2.09 7.95l-1.57-15-2.51 13.44-2.4-8.36-2.34 8.78-4.23-1-1.36-7.26s-.67 3.76-1.17 6.63h-.05l-2.08-4.6-1.41 3.73-.34-.08-1.72-8.06s-1 3.81-1.84 7.18l-.35-.09-1.51-14.27-2.43 13.3-.23-.06-2.26-8-1.83 7-5.18-1.29-1.85-6.9s-.68 2.68-1.18 4.7l-2.12-3.29-1.61 3-1.85-6.09s-1 2.87-1.94 5.29l-.59-2.57-1.14-7.75-1.93 7.42-1.16-2.12-.61 1.34-1.19-3-.67 1.82-1-3.81s-1.17 3.76-2.09 6.68l-1.57-12.57-2.35 10.54-1.65-5.05-.24.76-.68-2-1.22 3.87-1.16-1.48-1.61 2.46-1.85-5s-1.17 2.63-2.09 4.68l-1.57-8.8-1.42 4.47-.71-2.67s-.65 2.54-1.14 4.54l-1.64-3.35-.28.61-.25-.39-1.61 3-1.85-6.09s-1.17 3.21-2.09 5.7l-1.57-10.74-2 7.51-1.11-5.51s-.4 2.08-.81 4.25l-1-2.6L938 375l-.78-1.6-1.61 4-1.85-8.09s-1.17 4.26-2.09 7.57l-1.57-14.25-2.28 11.64-.78-2.92-.31 1.23-1.54-5.1-1.5 5.38-1.57 2.91-1.85-6.09s-1.17 3.21-2.09 5.7l-1.57-10.74-2.21 8.49-.85-2.31-.39 1.11-1.46-3.65-1.36 3.67-.1-.11-1.65 2.16-1.85-4.4s-1.17 2.31-2.09 4.12l-1.57-7.72-1.84 5-1.24-4.57s-.5 2-1 3.78l-.9-1.61-.43.84-1-1.59-1.61 3-1.85-6.09s-1.17 3.21-2.09 5.7l-1.57-10.74-2.07 8-1-3.71-.62 2.46-1.23-3.07-1 2.72-.45-.69-1.61 3-1.85-6.09s-1.17 3.21-2.09 5.7l-1.57-10.74-2.07 8-1-3.71-.62 2.46-1.23-3.07-1 2.72-.45-.69-1.61 3-1.85-6.09s-1.17 3.21-2.09 5.7l-1.57-10.74-1.18 4.51-.31-.08-2.87-6.54-1.64 4.5-1.52-9.76s-1 6.48-1.4 9.59l-2.06-7.68s-1.4 4.34-2.3 7.09l-.32-.07-1.24-12.46-2 11.43-1.15-2.64-.9 2.46-.88-.2-1-5.08-1.14 4.59-1.74-.39-.45-1-.32.86-1.63-.36-.91-9.12L834 353l-4.76-1-.75-4s-.3 1.67-.65 3.71l-2.33-.5-.32-1.31-.37 1.16c-25.17-5.34-61.62-12.45-103.87-18.78l-2.54-5.8-1.61 4.52-1.52-9.76s-1 6.48-1.4 9.59l-2.06-7.68s-1.53 4.75-2.42 7.46h-.16L708 317.67l-2 11.43-1.15-2.64-1.2 3.29-.38-.05-1.27-6.06s-.76 3.08-1.41 5.69l-.87-.12-1.05-2.41-.79 2.16-1-.14-1.06-10.63-1.81 10.25-1.75-.23-.54-1.22-.4 1.1-1.38-.18-1.15-6.18s-.53 3-1 5.89l-1.18-.15-.35-.79-.75-3-.24.78-1.27-2.83-1.64 4.5-1.52-9.76s-1 6.48-1.4 9.59l-2.06-7.68s-1.64 5.1-2.51 7.75l-1.31-13.19-2 11.43-1.15-2.64-1.35 3.71h-.13l-1.34-6.52s-.86 3.48-1.54 6.18l-.5-.06-1.29-3-1 2.7-.75-.08-1.12-11.23-1.92 10.89-.49-.05-3.24-7.41-.92 2.52-.45-2.41-.51 2.89-1.29-8.25s-.75 5.08-1.23 8.4l-.34-1.11-.28.88-1.72-6.23s-1.68 5.21-2.54 7.83L645.14 308l-2 11.43-1.14-2.63-1.43 3.93-1.43-6.73s-1 4.13-1.71 6.88l-1.62-3.71-1.57 4.31-1.28-12.92-2.28 12.9-1.8-4.1-1.29 3.54-1.64-8.8s-.54 3.06-1.05 6l-.92-2.11-.5 1.38-.83-3.36-.88 2.8-1-6.08s-1 6.48-1.4 9.59l-2.06-7.68s-1.56 4.85-2.45 7.55h-.12l-1.29-13-2 11.43-1.15-2.64-1.37 3.77h-.09l-1.36-6.58s-.9 3.65-1.58 6.38h-.35l-1.4-3.19-1.1 3h-.6l-1.15-11.6-2 11.4-1-.06-1.11-2.54-.89 2.43h-.62l-1.42-7.65s-.75 4.23-1.31 7.49h-.63l-1.37-5.55-1.23 3.72-1.72-5.6-1.71 7c-.56-3.29-1.55-8.86-1.55-8.86L583 318.2l-1.26-3.45-1.46 3.33h-.5L577.62 306l-1.19 12h-.45l-1.21-3.33-1.41 3.23H573l-1.59-6.39-1.3 6.28h-.27l-1.26-3.45-1.15 2.64-2-11.43-1.2 12.07h-.52c-.9-2.75-2.14-6.61-2.14-6.61l-1.75 6.51h-.48c-.48-3.32-1.23-8.41-1.23-8.41l-1.3 8.35h-.51l-2.36-7.47-1.74 7.07c-.55-3.27-1.57-9-1.57-9l-1.64 8.8-1.29-3.54-1.74 4h-.09l-2.26-12.77-1.27 12.75h-.08l-1.51-4.3-1.62 3.71c-.69-2.75-1.71-6.88-1.71-6.88l-1.42 6.76-1.43-3.93-1.15 2.64-2-11.43-1.32 13.28c-.86-2.62-2.54-7.83-2.54-7.83l-2.07 7.68c-.44-3.11-1.4-9.59-1.4-9.59l-1.52 9.76-1.64-4.5-1.81 4.14-1.43-3.27-1.43 3.92H516l-1.43-9.19s-.9 6.06-1.35 9.27H513l-2-7.37s-1.55 4.83-2.44 7.52h-.13l-1.29-13-2 11.43-1.14-2.59-1.43 3.93-1.39-6.75s-1 4.13-1.71 6.88l-1.62-3.71-1.52 4.18h-.06l-1.27-12.8-2.27 12.86-1.78-4.06-1.29 3.54-1.66-8.8s-1 5.71-1.57 9l-1.74-7.07-1.85 5.86-1.14-3.63-1.3 5.27h-.75c-.56-3.21-1.26-7.17-1.26-7.17L477 318.2h-.91l-.69-1.9-.83 1.89h-1.38l-1.88-10.67-1.06 10.63h-1.07l-.73-2-.86 2h-1.21c-.61-2.47-1.27-5.11-1.27-5.11l-1 5h-1l-.8-2.2-.94 2.15h-.3L459.16 307l-1.08 10.83h-1.06c-.82-2.53-1.73-5.35-1.73-5.35l-1.4 5.22h-1c-.46-3.2-1-7.08-1-7.08l-1.09 7h-.62l-1.87-4.27-1.49 4.09h-.22l-1.46-9.33s-.88 5.93-1.34 9.16h-.18l-1.95-7.25-2.26 7h-.37l-1.23-12.38-2 11.43-1.15-2.64-1.15 3.16h-.45l-1.23-5.94s-.76 3.09-1.42 5.71l-.84-.08-1.08-2.46-.83 2.29-.95-.09-1.07-10.81-1.86 10.51-1.56-.17-.68-1.55-.52 1.42-1.2-.14-1.22-6.54s-.38 2.15-.8 4.56l-1.14-2.59-.81 2.22-.56-2.28-.66 2.09-1.14-7.28s-.83 5.61-1.3 8.89h-.29l-1.9-7.28s-1.18 3.68-2.07 6.4l-.62-.09-1.17-11.76-2 11.29H404l-1-2.49-.8 2.19-.91-.15-.31-1-.8-3.87-.19.75-1.43-4.34-1.71 6.94-.06-.13c-.56-3.3-1.53-8.75-1.53-8.75l-.86 4.63-.45-4.54-1.14 6.47-.48-1.31-1.47 3.35-.5-.09-2.13-12-.92 9.28-.39-2.1s-.31 1.72-.67 3.82l-.87-2.38-1 2.26-.35-.07-.42-1.72-.37 1.19L382 304l-1 4.73-1.26-.27-.59-1.63-.6 1.37-.81-.18L376 298l-.93 9.37-.27-.06-2.25-7.13-1.53 6.23-.37-.09c-.57-3.32-1.41-8-1.41-8l-1.37 7.36-.87-.22-.69-1.88-.67 1.54-1.67-.43-1.75-9.9-.91 9.2-1.91-.51v-.07.06l-2.69-.73-.62-2.5-.45 2.2-4.32-1.21-1.23-7-.64 6.42-3.2-.92v-.06l-3.3-1-.15-1-.14.92c-26.13-7.56-45.77-13.18-76.52-7.49-4.58.847-9.213 1.57-13.9 2.17l-1.44-4.56-1.2 4.88-.9.1c-.55-3.16-1.21-6.89-1.21-6.89l-1.4 7.2-.87.09-.73-2-.95 2.17-1.19.11-2-11.07-1.13 11.34-.71.06-1-2.78-1.29 3h-.51l-1.53-6.16-1.31 6.35h-.23l-1.29-3.54-1.15 2.64-2-11.43-1.2 12.65h-.28c-.9-2.74-2.33-7.19-2.33-7.19l-2 7.34h-.14c-.45-3.22-1.35-9.25-1.35-9.25l-1.13 7.21-1.61-5.12-1.24 5-.62 1.4c-.57-3.32-1.46-8.33-1.46-8.33l-1.64 8.8-1.29-3.54-1.72 3.94h-.12L207.82 283l-1.26 12.7h-.11l-1.45-4.1-1.62 3.71c-.69-2.76-1.71-6.88-1.71-6.88l-1.39 6.75-1.43-3.93-1.15 2.64-2-11.43-1.28 12.85h-.19c-.89-2.72-2.4-7.39-2.4-7.39l-1.93 7.17h-.21c-.46-3.25-1.33-9.07-1.33-9.07l-1.36 8.51-2.71-6.2-1.64 4.5-1.52-9.76s-1 6.48-1.4 9.59l-2.1-7.66s-1.68 5.21-2.54 7.83l-1.32-13.28-2 11.43-1.15-2.64-1.43 3.93-1.39-6.75s-1 4.13-1.71 6.88l-1.62-3.71-1.5 4.11h-.09l-1.26-12.71-2.17 12.31h-.4l-1.52-3.47-.62 1.69-1.42-3.25-.14.38-.76-4.07s-.56 3.15-1.07 6.1l-1.2-7.67s-.34 2.29-.71 4.81l-.33-1.34-1.08 3.43-1.34-5s-1.29 4-2.18 6.74l-.47-.07L145 278.5l-2 11.43-1.15-2.64-.92 2.54-.82-.13-1.11-5.23s-.61 2.48-1.21 4.87l-1.48-.24-.64-1.47-.47 1.28-1.43-.23-1-9.66-1.63 9.23-2.46-.42-2-.36-.91-4.91s-.38 2.17-.81 4.6l-1.92-.35-.58-2.34-.67 2.11A780.719 780.719 0 010 253v102.27l7.92 112.4 1162.35.01zm-223.44-82.06v.13-.13zm-4.61 0h-.2.2zm-67.75-12.27h-.09.09z" fill="url(#paint0_linear)" />
    <path d="M1173 458.81a.653.653 0 000-.34c-1.15-3.76-21.35-69.77-27.42-71.85l-98.94-33.81a6.896 6.896 0 00-2.17-.33h-1.13l-3.6-5.67-3.22 4.71-3.37-7.57-2.11 8.42c-1.23-2-2.8-4.47-2.8-4.47l-2.39 4.59h-.27l-2-2.16-2.39 2.16h-.64c-.64-1.51-1.41-3.27-1.41-3.27l-1.09 2.38-4.55-12.9-3.22 8.46-3.37-13.61-2.11 15.14c-1.23-3.52-2.8-8-2.8-8l-2.48 8.59-2.13-4.28-2.851 4.64C993.869 346.8 993 343 993 343l-1.23 4.83-1.291-1.73-3.219 4-3.37-6.43-2.11 7.16c-1.23-1.66-2.801-3.8-2.801-3.8l-2.479 4.06-2.16-2-2.85 2.19c-.67-1.35-1.59-3.14-1.59-3.14l-1.2 2.22-3.19-7.67-3.221 7.17-3.37-11.53-2.109 12.83c-1.23-3-2.8-6.82-2.8-6.82l-2.48 7.28-2.16-3.58-2.901 3.96c-.67-2.42-1.589-5.62-1.589-5.62l-1 3.35-3.38-10.53-3.22 9.29-3.371-14.93-2.11 16.61c-1.23-3.86-2.799-8.83-2.799-8.83l-2.48 9.43-2.161-4.64-2.849 5.09c-.67-3.13-1.591-7.28-1.591-7.28l-1.389 6-3-7.21-3.22 7.17-3.37-11.53-2.11 12.83c-1.23-3-2.8-6.82-2.8-6.82l-2.481 7.28-2.159-3.58-2.86 3.92c-.67-2.42-1.59-5.62-1.59-5.62l-.61 2-3.15-7.57L888 348l-3.37-11.53-2.11 12.83c-1.23-3-2.801-6.82-2.801-6.82l-2.479 7.28-2.24-3.55-1.3 1.79-.63-1.12-1.23 2c-.6-2.16-1.25-4.42-1.25-4.42L869 350l-2.48-6.26-2.111 9.47c-1.23-2.2-2.8-5-2.8-5l-2.479 5.37-2.161-2.64-.159.17-1.81-4.39-2 4.28-.55-1.42-1.161 2.85-3-10.1-2.109 12.83c-1.23-3-2.8-6.82-2.8-6.82l-2.38 7.31-2.16-3.58-.6.83-1.35-3.25-1.65 3.67-.831-2.94-1.329 4.43-2.781-9.52-2.109 12.83c-1.23-3-2.8-6.82-2.8-6.82l-2.481 7.28-2.199-3.58-.601.83-1.349-3.25-1.651 3.67-.829-2.94-1.33 4.43-2.781-9.52-2.109 12.83c-1.23-3-2.8-6.82-2.8-6.82l-2.48 7.28-2.16-3.58-.6.83-1.351-3.25-1.669 3.68-.831-2.94-1.329 4.43-2.78-9.52L792 364c-1.23-3-2.8-6.82-2.8-6.82l-2.481 7.28-2.159-3.58-1.38 1.9-.581-1-1.199 1.93c-.61-2.19-1.28-4.52-1.28-4.52l-1.651 5.51-2.469-6.07-2.11 9.26c-1.23-2.15-2.8-4.92-2.8-4.92l-2.481 5.25-2.159-2.58-.13.13-1.82-4.38-2 4.36-.521-1.33-1.149 2.76-3-10.15-2.111 12.83c-1.23-3-2.8-6.82-2.8-6.82l-2.479 7.28-2.1-3.48-2-6.42-2.06 6.1-.421-1.47-1 3.49-3.06-13.92-2.109 17c-1.23-4-2.8-9-2.8-9l-2.481 9.67-2.159-4.75-1 1.92-.91-2.18-1.4 3.11c-.55-2.6-1.091-5.09-1.091-5.09l-1.49 6.59-2.619-9-2.11 12.83c-1.23-3-2.8-6.82-2.8-6.82l-2.481 7.28-2.159-3.58-.331.46-.369-.73-2.201 4c-.67-2.39-1.529-5.43-1.529-5.43l-1 3.19-1.911-5.35-2.109 10.52c-1.23-2.45-2.8-5.59-2.8-5.59l-2.48 6-2.161-2.94-1.559 1.76-1.74-4.62-.91 2.38-.32-.91-2.21 6-3.151-12.62-2.11 15c-1.23-3.49-2.799-8-2.799-8l-1.331 4.56-.899-2.17-1.59 3.55-.821-1.6-4.179-6.31-1.521 9.27-3.389-3.25-1.51 3s-64.14-11-129.94-17.22l-2.5-7.7-3.14 8.94h-.12l-3.331-14.55-2 15.73-.289.06c-1.2-3.7-2.6-8.1-2.6-8.1l-2.46 9.21h-.06l-2.12-4.5-2.851 5c-.67-3.09-1.589-7.19-1.589-7.19l-2 8.55c-20.36 4.48-146.47-30.25-168.55-38.75l-2.27-6.66L338 331l-1.07-.41c-.61-3.24-1.3-6.86-1.3-6.86l-1.19 5.92-5.361-2-1.449-7.65-.73 6.83-1.791-.66-3.31-9.7-2 7.46c-.63-3.45-1.789-9.47-1.789-9.47l-1.69 8.54-.54-.2-1.09-2.8-.6 1.27-.35-1.83-.27 2.5-1.4-.5-2-10.72-1 9.63-.34-.12-.28-.83-.18.67-1.84-.64-3.05-9-1.92 7.23h-.11c-.64-3.49-1.741-9.2-1.741-9.2l-1.619 8-.61-.21-1.17-6.14-.55 5.12-.17.37-1.92-.65-2-10.28-1 9.29-5.61-1.85-.45-1.69-.32 1.44-5.38-1.74-1.14-6-.58 5.44-6.65-2.1-2.3-6.75-1.48 5.57-.9-.28c-.62-3.34-1.38-7.3-1.38-7.3l-1.38 6.54-1.9-.58-.14-.36-.131.27-2.879-.87-1.651-8.7-.849 7.93-3.25-1-3.49-10.24-2 7.46c-.63-3.45-1.79-9.47-1.79-9.47l-1.76 8.76-.77-4-.24 2.26-.57-1.44-1.52 3.21-.81-.23-2.32-12.24-1.21 11.27-1.33-.37-.71-1.81-.68 1.43-2-.55-1.13-4.22-.82 3.7-2.37-.64v-.08.06l-1.9-.51-1.78-8.82-.88 8.15-3-.78-.57-1.63-.07.23-2.39-7-1.41 5.3-.08-.53-.39 2.31v.06h-.15c-.64-3.49-1.72-9.11-1.72-9.11l-1.66 8.25-.68-.17-1-2.54-1 2-1.62-.41-2.08-10.92-1.09 10.14-1.94-.47-.23-.58-.22.47-2.74-.66-.84-3.15-.62 2.8-4.62-1.1-1.53-8-.8 7.46-3.27-.75-.33-1-.24.83-3.37-.76-.33-2.08-.33 1.93c-25.46-5.68-52.26-10.69-80.41-14.76L98 259.11l-2 7.46c-.63-3.45-1.79-9.47-1.79-9.47l-1.87 9.28-1.47-3.74-2.02 4.36-2.6-13.64-1.45 13.4h-.13L83 262.45l-1.82 3.84h-.05c-.79-2.91-1.93-7.18-1.93-7.18l-1.51 6.76h-.24L76 262.09l-1.32 2.78-2.3-12.06L71 265.07l-.84-.1c-1-2.84-2.25-6.42-2.25-6.42l-1.73 6-1-.11c-.47-3.44-1.18-7.9-1.18-7.9l-1.28 7.6-1.59-.14-.74-1.88-.81 1.72-1.81-.19-2.15-4.54-1.62 4.12h-.34L52 253.54s-.95 5.89-1.48 9.36h-.35l-2.12-7.31s-1.39 4-2.41 6.88l-.64-.06-1.34-12.61-2.3 12.06-1.36-2.78-1 2.75-.88-.08-1.26-5.65-1.45 5.43-1.42-.12-.93-2-.72 1.83-1.37-.11-1.16-10.81-2 10.56-2.12-.16-.53-1.13-.42 1.06-1.62-.12-1.31-6.48s-.62 3.22-1.2 6.31l-1.46-.1L18 256.1l-1.37 4c-5.487-.36-11.024-.693-16.61-1v208.58H1171l2-8.87zm-449-55.26v-.15h.099l-.099.15zm6.169-.11h.291-.291zm90.861-14.69h.129-.129zm90.569-14.65h.281-.281z" fill="url(#paint1_linear)" />
    <path d="M1441.12 305.84l-3.15-14.4s-2.36 9-3.71 14.07h-.22l-2-24.23-3.04 21.39-1.76-4.94-1.84 6.19-.56-.09-1.91-11.4s-1.18 5.86-2.18 10.79l-1.24-.16-1.67-4.69-1.28 4.32-1.43-.15-1.64-20.32-2.86 19.9-2.23-.17-1.15-3.24-.93 3.12-1.56-.09-2-12.89s-1 6.89-1.83 12.79h-1.38l-1.84-9.2s-1.13 4.72-2.23 9.25c-18.39.49-36.83 4.9-51.12 15-2 1.42-4 3-5.93 4.45l-.47-1.33-.64 2.17c-.8.6-1.61 1.18-2.44 1.75l-1.75-13.77s-1.19 9.84-1.91 16.06l-.57.31-2.8-12.79s-2.56 9.77-3.88 14.68l-2-24.89-3.08 21.43-1.76-4.94-2.19 7.37-2.13-12.66s-1.55 7.73-2.61 12.9l-2.48-7-2.05 6.91-.45-.12-1.86-22.94-3.11 21.59-1.46-.39-1.68-4.71-1.19 4-1.23-.27-2.06-13.58-1.84 12.88-1.38-.2-1.83-9.11s-1 4.36-2.1 8.72c-20.26-1.42-40.73 5.92-60.77 10.65a235.276 235.276 0 01-20.27 3.85l-2.77-7.76-2.51 8.44-2.32-18.29s-1.47 12.14-2.14 18l-3.15-14.4s-2.56 9.77-3.88 14.68l-2-24.89-3.08 21.43-1.76-4.94-2.19 7.37-2.13-12.66s-1.55 7.73-2.61 12.9l-2.48-7-2.4 8.08-2-24.23-3.49 24.24-2.76-7.75-2 6.65-2.5-16.5s-1.55 10.7-2.39 16.84l-2.66-13.26s-2.35 9.81-3.56 14.71c-2.8-.25-5.6-.53-8.4-.8l-1.1-8.63s-.48 4-1 8.43l-3.27-.29-1-4.57-1.16 4.41c-1.19-.08-2.38-.15-3.57-.21l-1.16-14.42-2 14.32c-2.19 0-4.37 0-6.55.15l-.55-3.27-.68 3.36-1.62.15c-2 .21-4 .53-6 .92l-1.18-14.63-2.21 15.37c-2.32.56-4.62 1.22-6.9 1.94l-1.62-10.68s-.89 6.14-1.68 11.78l-1.61.57-1.76-8.77s-1.32 5.52-2.49 10.35c-3.49 1.34-7 2.74-10.42 4.1-9 3.56-19.59 11.22-34.39 16.92l-12.66 7.51-3.91-19.81-3.17 14.87-3.32-23.9-2.08 26.59c-1.22-6.18-2.76-14.13-2.76-14.13l-.92 5.65-1.52-8.34-2.08 10.55-.06-.2-1.29 3.75-3.06-23.88-2.08 28.79c-1.22-6.69-2.76-15.29-2.76-15.29l-2.45 16.34-2.13-8-2.8 8.82c-.66-5.43-1.56-12.62-1.56-12.62l-.59 4.48-.32-1.21-3.17 11.13-3.3-17.97-2.08 19.91c-1.22-4.63-2.76-10.57-2.76-10.57l-2.45 11.3-2.13-5.56-2.8 6.1c-.66-3.75-1.56-8.72-1.56-8.72l-2.1 11-2.42.36-2.74-10.39-3.17 11.13-3.32-17.89-2 18.82-.38.06C956.31 380.12 955 375 955 375l-2.22 10.25-.59.09-1.76-4.59L948 386l-.55.08c-.64-3.62-1.42-7.92-1.42-7.92l-1.59 8.37-3.17.47-.94-2.58-1.13 2.89-1.63.24-1.64-6.55-1 6.87-1.42.21-.88-2.47-.81 2.72-2.19.33-.11-.21-.16.25-2.34.35-.47-1.9-.54 2s-67.72 7.17-88.77 5.31c-21.05-1.86-61.61 2.52-61.61 2.52l-1.46-4-1.88 4.78-.44.1-2.1-8.22-1.29 9-.4.09c-.77-2.13-1.6-4.46-1.6-4.46l-1.54 5.17-.31.07-1.27-2.4-1.06 1.67-2.75-10.41-3.17 11.13-3.32-17.89-2.04 19.94c-1.22-4.63-2.76-10.58-2.76-10.58l-2.45 11.3-2.13-5.56-2.8 6.1c-.66-3.75-1.56-8.72-1.56-8.72l-2 10.31-2.12-8-3 10.46-.3.07-3.21-17.3-1.93 18.45-.5.11c-1.14-4.36-2.41-9.23-2.41-9.23l-2.22 10.27-.57.13-1.79-4.66-2.59 5.64-.28.06c-.65-3.7-1.49-8.33-1.49-8.33l-.9 4.73-2.12-8-3.17 11.13-3.28-17.93-2.08 19.91c-1.22-4.63-2.76-10.58-2.76-10.58l-2.45 11.3L696 407l-2.8 6.1c-.66-3.75-1.56-8.72-1.56-8.72L690 413l-1.91-5.59-3.16 8.59-3.32-13.86-2.08 15.42c-1.22-3.58-2.76-8.19-2.76-8.19l-2.45 8.75-.69-1.4-2.2-8.35-2.43 8.52c-.58-2.52-1.18-5.08-1.18-5.08l-.57 2.33-2.32-12.5-2.08 19.91c-1.22-4.63-2.76-10.57-2.76-10.57l-2.45 11.3-2.13-5.56-2.8 6.1c-.66-3.75-1.56-8.72-1.56-8.72l-2 10.52-3-15.31-3.15 15.23-3.28-24.54-2.08 27.27c-1.22-6.34-2.76-14.49-2.76-14.49l-2.45 15.48-2.13-7.61-1.89 5.63-2-7.59-.18.61-.3-2.26-.9 6.44-1.8 6.33-3.31-17.81-2.08 19.91c-1.22-4.63-2.76-10.57-2.76-10.57l-2.45 11.3-.2-.52-1.5-7.87-.57 3.14-1.78 3.87-2-4.36-.44-2.43-1.34 7-.36.95-2.44-11.35s-1.54 5.95-2.76 10.57l-2.08-19.91-3.32 17.89-3.17-11.13-3.19 12.08-1.73-3.77-2.13 5.56-2.45-11.3s-1.54 5.95-2.76 10.57l-2.08-19.91-3.33 17.91-1.8-6.33-.9-6.44-.3 2.26-.18-.61-2 7.59-1.82-5.64-2.13 7.61-2.45-15.48s-1.54 8.15-2.76 14.49l-2.08-27.27-3.32 24.51-3.17-15.24L546.8 426l-1.7-8.9s-.9 5-1.56 8.72l-2.8-6.1-2.13 5.55-2.45-11.27s-1.54 5.95-2.76 10.58l-2.08-19.91-3.32 17.87-3.17-11.13-2.14 8.12-.26-1.05s-.9 3.85-1.56 6.76l-2.8-4.72-2.13 4.3-2.45-8.75s-1.54 4.61-2.76 8.19l-2.08-15.42-3.32 13.86-3.17-8.62-3.16 9.32-1.78-9.32s-.9 5-1.56 8.72l-2.8-6.1-2.13 5.56-2.46-11.26s-1.54 5.95-2.76 10.57l-2.08-19.91-3.32 17.89-3.17-11.13-3.51 13.3s-57 15-124.16 26.94l-2.62-10.2-2.21 11.05-.38.07c-.8-5.73-2.05-14.41-2.05-14.41l-2.3 15.16-1.81-6.09-2.43 6.8h-.16l-3.16-22-1.8 22.3-2.21-7.43-2.28 6.4c-1-4.75-2.4-11.87-2.4-11.87l-2 11.66-2-6.78-1.62 4.55-2.84-19.74-1.84 22.87c-1.21-4.52-3.57-13.52-3.57-13.52l-2.9 13.25c-.61-5.37-2-16.54-2-16.54l-2.14 16.84-2.31-7.76-4.86 13.73c-28.14 3.69-55.94 6.09-80.25 6a106.435 106.435 0 01-14.21-1.1l-4-15.62-2.45 12.21c-.78-5.65-2.2-15.5-2.2-15.5L190 458.2l-1.82-6.12-2.51 6.92h-.11l-3.17-22.07-1.69 20.86-.59-.16-1.73-5.83-1.74 4.88-.9-.26c-.93-4.57-2-10.1-2-10.1l-1.52 9.06-1.32-.39-1.13-3.79-1.1 3.1-.76-.24-2.59-18-1.36 16.78-2.33-.78-1.74-6.6-1.23 5.6-2.68-.93c-.5-4.2-1-8-1-8l-.93 7.3-1.2-.43-3.38-13.16-2.23 11.12-.39-.14c-.8-5.73-2-14.26-2-14.26l-1.94 12.77-1.22-.47-1-3.24-.9 2.52-2.44-.94-2.41-16.76-1.24 15.33-6.8-2.77-.65-3.23-.47 2.78-6.46-2.55-1.5-10.46L117 435c-8.18-3.35-16.38-6.77-24.51-10.11l-4.13-11.6-2.26 7.81-2.1-16.83s-1.33 11-1.95 16.38h-.06l-2.86-13.06s-1.6 6.1-2.84 10.78l-1-.39-1.6-19.79-1.92 13.36-2.52-7.08-2.31 7.76-2.14-16.84s-1.35 11.18-2 16.54l-2.9-13.25s-1.4 5.36-2.6 9.88l-.77-9.47-.81 5.61-1.25-15.42-2.07 14.39L47.54 390l-2.31 7.76-2.13-16.86s-1.35 11.18-2 16.54l-2.9-13.25s-2.36 9-3.57 13.52l-1.85-22.91L30 394.52 28.35 390l-2 6.78-2-11.66S22.95 392.21 22 397l-2.28-6.4-2.23 7.4-1.8-22.3-3.22 22.3-2.54-7.13L8.11 397l-2.3-15.19s-1.42 9.85-2.2 15.5l-2.45-12.22L0 389.63v78.05h1445.58V306.16l-2.32-18.29s-1.47 12.13-2.14 17.97z" fill="url(#paint2_linear)" />
    <path d="M1306.31 367.27c-27 5-53.94 10-80.42 17-25.51 6.8-36.88 15.27-63.26 14.23-36.13-1.43-57.66-27.69-86.06-31.8l-.59-1.64h2l-3.38-9.34h1.57l-3.14-8.7h2.37l-5.75-15.92v.1l-5.4 15.8h2.14l-3 8.69h1.32l-3.17 9.33h1.74l-.57 1.69c-1.34.2-2.78.44-4.32.74l-2.29-6.3h2.12l-5.13-14.15v.09l-4.78 14.17h1.91l-2.62 7.78h1.18l-.25.73c-32.41 8-62.521 28.29-101.661 43.14l1.38-5.62-1.75-4h-14.3l-5.66-1.85-3.91.51.1-1.13-1.75.72-1.24-.88-1.84.16-1.5-.63.44 1.87-.58.82v1.65l-.82 1.23-1 .21v1.23l.81.69 1 .19.71.46 4.22.41 2.47 5 2.37 1.44.41 2.47-1.17 3.34c-9.17 3.55-16.15 6.3-19.87 7.77l-3.41-9.37h2l-4.13-11.34h3.1l-7.56-20.76h-.06v.13l-7 20.66h2.79l-3.82 11.34h1.7l-4.11 12.19h2.27l-.85 2.53-5.26 1.23-6.05-16.76h3.18l-6.4-17.59h4.8L864.869 369l-.09-.06v.21l-10.8 32h4.33l-1.68 5-18-20.89h-24V379h1.75v-2.56h-13V379h1.75v6.34h-12.2l-22.93 27.72.66.91 1.37 1.6.56-.68v34.65a373.66 373.66 0 01-49-2c-21.44-2.36-68 7.61-105.8 20.09h827.831v-125a142 142 0 00-19.53 2.46l-119.78 22.18zm-377.001 52.31l-2.35.91.45-1.95 1.23-3.39.72 2.16-.05 2.27zm1.7-.66l.41-5.42 5.41.15 3.31-2.08 1.11 3.42-10.24 3.93zm13.07-5l-.42-2.17 1.14 1.89-.72.28z" fill="url(#paint3_linear)" />
    <path d="M828.349 400.79l-6.15-8.21h-9.67v.89l5.89 8.39h9.74l.19-1.07zM846.711 400.79l-6.16-8.21h-9.66v.89l5.88 8.39h9.75l.19-1.07zM788.571 440.87h1.43v-15.39h-11v15.39h3.25v.08a2.122 2.122 0 00-2.28 1.65h-1v3.09h11v-3.09h-.53a2.12 2.12 0 00-.87-1.73zM804.05 425.46h-6.2v25.9h12.54v-25.9h-6.34zM799.65 411.01v-5.95h-11v5.95h11zM823.359 425.48v15.39h8.94v-15.39h-8.94zM852.21 425.48h-8.94v15.39h8.94v-15.39z" fill="#346444" />
    <path d="M327.13 467.68a7.876 7.876 0 00-7.9-4.26v-.2c0-.46.043-.917.13-1.37v-.19c.07-.52.16-1 .27-1.53 0-.1 0-.2.07-.29.093-.393.197-.783.31-1.17l.13-.41c.12-.367.25-.727.39-1.08l.13-.32c.19-.45.39-.89.62-1.31l.11-.19c.193-.353.397-.687.61-1l.24-.36c.193-.28.393-.55.6-.81l.26-.33c.3-.35.6-.69.93-1l-.71.22-.13.05-.55.22-.11.05-.54.26h-.08l-.53.31c-3.6 2.29-5.18 6.77-5.18 11.42l-.22.13a13.12 13.12 0 00-1.28-2.16l-.21-.27-.1-.13c-.16-.21-.34-.4-.51-.59l-.13-.14a8.24 8.24 0 00-.55-.52l-.15-.13c-.19-.16-.39-.32-.59-.46l-.14-.1c-.2-.14-.41-.27-.63-.39l-.12-.06a6.898 6.898 0 00-.63-.29l-.15-.06a6.38 6.38 0 00-.69-.21h-.19a6.274 6.274 0 00-.71-.11h-.21c-.25-.015-.5-.015-.75 0h-.48c-.2 0-.39 0-.6.08a12.163 12.163 0 017.15 6.9 7.996 7.996 0 00-1.28 1.81l14.1-.01z" fill="url(#paint4_linear)" />
    <path d="M634.601 467.68l-2.26-6.21h3.14l-6.32-17.36h4.74l-11.56-31.77-.09-.06v.21l-9.37 27.8-6.4-14h6L597.841 394l-.11-.06v.21l-13.56 32.11h5.44l-4 9.58-7.39-20.3-.09-.06v.21l-4.65 13.78-7.73-15.19h7l-17-33.32-.13-.07.06.22-15.64 33.17h6.27l-5.31 11.25-9.43-25.9-.09-.06v.21l-10.82 32.11h4.34l-3.1 9.18-7.63-21-.09-.06v.21l-8.44 25-4.5-9.88h6l-14.71-32.25-.11-.06v.21l-13.42 32.17h5.44l-3.44 8.23-8.3-22.84-.09-.06v.21l-7.18 21.29-1-2.85-.09-.06v.21l-9.34 27.79-6.4-14h6L439.941 421l-.11-.06v.21l-13.56 32.11h5.44l-6.08 14.39 208.97.03zm-22.89-23.82l-.08.24h4.27l-2.22 6.59-3.12-6.83h1.15zm-39.2-11.41l-.81 2.42-1.23-2.42h2.04zm-30.88 0l-1.63 3.47-1.26-3.46 2.89-.01zM507.511 453l-.9 2.67-1.21-2.67h2.11zm-27.12 0l-.38.9-.33-.9h.71z" fill="url(#paint5_linear)" />
    <path d="M389.11 467.68L384 453.62l-.09-.06.04.2-4.69 13.92h9.85z" fill="#356545" />
    <path d="M273.17 460.36a10.88 10.88 0 00-2.06.2l.06-.19c.05-.16.1-.32.14-.48v-.09c.04-.153.077-.31.11-.47v-.09c.139-.658.216-1.328.23-2v-.2-.36-.25-.34-.28-.31c0-.1 0-.24-.07-.37s0-.23-.07-.34c-.07-.11-.07-.3-.12-.45l-.07-.23-.13-.37-.09-.24-.15-.36-.1-.23-.2-.39-.1-.19c-.11-.19-.22-.38-.35-.57v2.44c0 .13-.06.53-.11.8v.21a17.018 17.018 0 01-1.11 3.72 18.93 18.93 0 00-.54-4.83l-.05-.22c0-.16-.09-.32-.14-.47l-.09-.28-.15-.44-.11-.3-.16-.41-.13-.31-.18-.39-.16-.31-.19-.37-.19-.33-.2-.33c-.11-.18-.24-.35-.36-.52l-.23-.31-.3-.38-.22-.25-.3-.33-.24-.24-.33-.31-.26-.23-.36-.29-.27-.21-.4-.28-.27-.18-.47-.29-.24-.14c-.24-.13-.49-.26-.75-.39.24.33.46.68.67 1l.26.44a21.906 21.906 0 012.64 12.56 17.02 17.02 0 00-1.54-2.58v-.06a26.22 26.22 0 00-.51-.67l-.05-.07a17.26 17.26 0 00-1.28-1.41l-.14-.13-.54-.5-.19-.16-.55-.45-.18-.14-.67-.49-.08-.06c-.26-.18-.53-.353-.81-.52l-.11-.07-.69-.39-.25-.13-.59-.29-.28-.13-.61-.25-.26-.1-.79-.27h-.1l-.91-.26-.26-.06-.67-.15-.34-.06-.62-.1h-.35l-.66-.06h-2.13c-.874.04-1.743.147-2.6.32-.3-.914-.653-1.809-1.06-2.68l.37-.66.21-.36c.21-.34.42-.67.64-1l.07-.1c.207-.293.42-.58.64-.86l.26-.31.5-.59.3-.32.52-.54.3-.29c.21-.2.42-.38.64-.57l.21-.18c.287-.24.58-.467.88-.68l.23-.16.69-.46.33-.2.63-.35.35-.18.68-.31.32-.14c.33-.13.67-.26 1-.37-4.78-1-8.79 1.65-11.45 5.6a41.288 41.288 0 00-1.43-2 37.903 37.903 0 013.31-8.81 34.213 34.213 0 013-4.71l.1-.12a31.378 31.378 0 012.27-2.63l.12-.12c.38-.393.77-.773 1.17-1.14l.19-.18c.41-.37.82-.72 1.24-1.06.41-.33.83-.64 1.26-.95l.22-.16c.42-.293.847-.573 1.28-.84l.26-.15c.45-.27.9-.53 1.37-.77h-1.66c-7.32.41-12.81 5.19-16.25 11.66a39.025 39.025 0 00-.5-6v-.28c0-.29-.1-.58-.16-.87l-.08-.41c-.05-.27-.11-.53-.17-.8l-.1-.46c-.06-.26-.13-.51-.19-.76l-.13-.49c-.07-.25-.14-.49-.21-.73l-.15-.51-.23-.71-.17-.51-.25-.68-.2-.52-.26-.66-.22-.52-.28-.64-.24-.52-.3-.61-.27-.51-.31-.58-.3-.51-.33-.55-.33-.51-.33-.52-.39-.55-.31-.44c-.233-.32-.477-.63-.73-.93l-.3-.35-.48-.55-.35-.37-.47-.49-.38-.36-.48-.44-.61-.32-.49-.41-.42-.32-.51-.37-.44-.3-.53-.34-.46-.27-.55-.3-.47-.24-.58-.27-.48-.21-.6-.23-.49-.17-.63-.19-.5-.14-.67-.15-.5-.1-.73-.11-.48-.06-.83-.06h-1.7c9.7 5 16.59 16.59 17 30.16a19.44 19.44 0 00-2.81-4.83L232 429l-.43-.5-.12-.13-.4-.43-.14-.14-.42-.4-.14-.12-.47-.4-.1-.08a12.04 12.04 0 00-1.23-.86h-.05l-.58-.32-.15-.08-.5-.23-.19-.08-.49-.19-.2-.07-.51-.15h-.18l-.6-.13h-.1a9.3 9.3 0 00-1.49-.12H222.69c-.406.032-.81.089-1.21.17 4.62 1.48 8.63 5.43 10.78 10.75a24.186 24.186 0 00-9.09-1.77H219.5c.45 0 .89.06 1.33.1a24.272 24.272 0 00-19.58 13.75 18.356 18.356 0 00-.89-4.6c-.08-.233-.163-.463-.25-.69v-.11c-.08-.193-.16-.383-.24-.57l-.07-.15-.25-.51-.09-.16-.27-.48-.09-.16-.31-.47-.09-.13a7.22 7.22 0 00-.38-.5l-.05-.07a10.26 10.26 0 00-1-1l-.13-.11-.4-.34-.19-.15-.37-.27-.22-.15-.37-.23-.25-.14-.39-.2-.26-.12-.42-.17-.26-.1-.48-.16-.23-.07c-.24-.07-.49-.13-.75-.18.31.27.62.55.91.85 3.51 3.56 5.38 9.13 4.81 15.1a17.09 17.09 0 00-23.85 15.69v.59h109a10.902 10.902 0 00-10.25-7.45z" fill="url(#paint6_linear)" />
    <path d="M1218.81 417.49c-1.04.081-2.08.245-3.1.49h-.12c-.44.107-.87.23-1.29.37l-.2.07c-.39.133-.78.277-1.16.43l-.22.09c-.37.16-.74.33-1.09.51l-.2.1c-.37.193-.73.397-1.08.61l-.15.09c-.39.24-.76.493-1.13.76a21.412 21.412 0 00-4.13 4l-.12.15c-.25.327-.5.66-.74 1l-.16.23c-.22.32-.44.653-.65 1l-.16.26c-.21.34-.41.673-.6 1l-.14.25c-.2.367-.39.74-.57 1.12l-.1.2c-.21.433-.41.873-.6 1.32a37.552 37.552 0 00-2.43 8.57l-.72-.18c-3.74-13.06-11.79-24.39-23.74-27.92h-.08l-.63-.17c-.45-.12-.9-.23-1.36-.33l-.54-.11c-.51-.1-1-.19-1.53-.26h-.37c-.58-.07-1.16-.13-1.76-.16h-.18c-.65 0-1.32-.05-2 0 .59.32 1.16.66 1.73 1l.51.32c.41.26.82.527 1.23.8l.52.36c.47.327.93.66 1.38 1l.25.19c.54.42 1.07.853 1.6 1.3l.36.31c.41.353.81.717 1.21 1.09l.42.4c.41.393.82.797 1.23 1.21l.26.26c.5.52.99 1.053 1.47 1.6l.1.12c.43.5.86 1.01 1.28 1.53l.29.36c.39.487.76.98 1.13 1.48l.2.27a52.905 52.905 0 012.51 3.79l.15.25c.35.587.68 1.183 1 1.79l.14.26a60.538 60.538 0 012.09 4.28v.07c.31.667.6 1.373.87 2.12l.1.25c.29.74.56 1.487.82 2.24v.06a23.5 23.5 0 00-2.59.58 22.919 22.919 0 00-8.01 4.119 22.972 22.972 0 00-5.82 6.881c-.36.667-.69 1.333-1 2-.31.667-.57 1.357-.79 2.07a22.782 22.782 0 00-.52 12.36h45c1.1-4.759.66-9.744-1.26-14.236a23.057 23.057 0 00-9.4-10.764c1.48-10.85 6.88-20.06 14.59-25.21z" fill="url(#paint7_linear)" />
    <path d="M421.82 467.68l-2.79-6.13h3.99l-8.04-17.62h6.03l-14.7-32.26-.12-.06.05.21-13.56 32.11h5.44l-7.44 17.62h3.35l-2.59 6.13h30.38z" fill="url(#paint8_linear)" />
    <path d="M678.449 467.68l-3.97-7.8h4.61l-9.28-18.21h6.96l-16.96-33.32-.13-.06.06.21-15.64 33.17h6.27l-8.59 18.21h3.87l-3.67 7.8h36.47z" fill="url(#paint9_linear)" />
    <path d="M716.57 453.66l-14.71-32.25-.11-.06.05.2-13.56 32.11h5.44l-5.92 14.02h29.17l-6.39-14.02h6.03z" fill="url(#paint10_linear)" />
    <path d="M927.361 461.19c-.393.473-.76.967-1.1 1.48-.34.513-.673 1.04-1 1.58a22 22 0 00-.81 1.68c-.247.573-.46 1.157-.64 1.75h191.999v-1.63a30.07 30.07 0 00-8.33-20.741 30.055 30.055 0 00-20.34-9.259h-3.23l-.95.07h-.51l-.93.12-.45.06-1.23.22-.64.14-.63.14-.72.19-.51.14-.77.23c-.93.3-1.85.633-2.74 1-1-10.49 2.27-20.29 8.44-26.56.52-.53 1.05-1 1.61-1.5-.45.09-.89.19-1.32.31l-.42.13c-.28.09-.57.17-.84.27l-.46.18-.74.31-.46.22-.68.35-.44.25-.65.41-.4.26-.65.48-.34.26c-.24.19-.47.4-.7.6l-.23.2c-.61.576-1.18 1.194-1.71 1.85l-.09.12c-.23.287-.45.583-.67.89l-.16.24c-.19.27-.37.54-.54.82l-.17.28c-.17.273-.33.553-.48.84l-.15.29c-.15.293-.3.593-.44.9l-.12.27c-.15.327-.29.66-.43 1l-.08.2c-.16.4-.31.803-.45 1.21-.54 1.63-.95 3.302-1.21 5a37.685 37.685 0 00-32.58-21.22h.1-3.6c-.57 0-1.13.07-1.69.13h-.07c-.54.06-1.07.13-1.6.2l-.46.07c-.53.08-1.05.18-1.57.28h-.22c-.47.1-.94.21-1.4.32l-.51.13c-.47.12-.93.25-1.39.4l-.42.13-1.19.4-.56.21-1.2.47-.6.26-1 .45-.6.29-1 .53-.7.38-.6.34c-1.22.71-2.4 1.488-3.54 2.33 3.16-11.53 11.11-20.27 20.46-23.26-.7-.143-1.41-.243-2.13-.3H1029.35c-.88.002-1.76.076-2.63.22h-.18c-.36.06-.72.14-1.07.22l-.32.08-.91.27-.35.12-.86.33-.33.14-.87.41-.27.13c-.34.18-.67.37-1 .57l-.09.05c-.75.458-1.48.962-2.17 1.51l-.18.14c-.28.227-.56.46-.83.7l-.24.22-.73.7-.24.25-.71.75-.21.23c-.25.287-.5.58-.75.88l-.12.15a34.176 34.176 0 00-4.94 8.5c.68-23.87 12.8-44.2 29.87-53.07H1037c-.64 0-1.28.07-1.91.13h-.24c-.61.06-1.21.15-1.81.24h-.28c-.59.1-1.17.217-1.74.35l-.28.07c-.57.14-1.13.297-1.69.47l-.25.08c-.56.18-1.11.373-1.66.58l-.2.08c-.56.22-1.11.45-1.66.71l-.11.05c-.56.267-1.11.547-1.66.84-.54.3-1.07.61-1.6.94l-.13.08c-.5.32-1 .65-1.48 1l-.18.13c-.47.34-.94.693-1.4 1.06l-.19.15c-.45.367-.9.747-1.34 1.14l-.18.16c-.44.4-.87.81-1.29 1.23l-.15.15c-.43.433-.86.88-1.27 1.34l-.09.1a43.602 43.602 0 00-3.69 4.74v.06a47.68 47.68 0 00-1.08 1.67l-.07.11c-.35.56-.68 1.13-1 1.71l-.07.12c-.33.58-.64 1.17-.95 1.77l-.05.1c-.31.607-.61 1.223-.9 1.85a67.595 67.595 0 00-6 27.61c-6.059-11.38-15.729-19.79-28.619-20.51H968.891c.51.26 1 .54 1.51.82l.48.28 1 .61.55.35.93.61.54.37 1 .68.47.34c.453.34.9.673 1.34 1l.4.34.93.78.58.51.72.65.62.58.64.63.63.63.58.61c.847.893 1.667 1.82 2.46 2.78l.37.45.73.93.34.45.74 1 .26.37a60.75 60.75 0 014.29 7.04v.06a67.461 67.461 0 016.76 19.9c.44 2.512.747 5.046.92 7.59l-.08.28c-3.73-11.28-12.8-21.08-24.45-18.7.48.15.95.32 1.42.51l.28.11c.453.18.9.373 1.34.58l.24.12c.43.21.85.42 1.27.65l.11.06c.44.24.88.51 1.31.78l.26.17c.427.273.843.557 1.25.85l.18.13c.393.287.78.583 1.16.89l.16.13c.4.33.79.67 1.18 1l.23.21c.39.36.77.73 1.15 1.12l.08.09c.36.373.713.757 1.06 1.15l.16.18c.353.407.687.827 1 1.26l.17.22a84.868 84.868 0 012 2.8l.14.23c.293.48.58.97.86 1.47l.12.22c.28.51.55 1 .8 1.55.26.53.5 1.08.74 1.63l.11.27c.227.547.443 1.1.65 1.66.12.34.25.68.36 1a29.934 29.934 0 00-9-1.84h-1.44c-.58 0-1.15 0-1.72.05h-.55l-1.17.11-.62.08-1.1.17-.59.11-1.19.26-.44.1c-.54.14-1.077.29-1.61.45l-.18.06c-.467.147-.93.307-1.39.48l-.46.18-1.08.45-.49.22-1 .51-.43.22c-.413.22-.82.447-1.22.68l-.2.12c-.48.287-.953.59-1.42.91l-.14.1c-.4.28-.797.567-1.19.86l-.32.25c-.327.26-.66.523-1 .79l-.33.29-1 .88-.25.24a30.146 30.146 0 00-2.26 2.48l-.1.13c-.307.387-.607.78-.9 1.18l-.09.11a30.05 30.05 0 00-2.72 4.57 38.735 38.735 0 014.41-21.72c.273-.493.56-.977.86-1.45l.09-.14c.3-.48.61-.95.94-1.4-.46.22-.9.44-1.33.68l-.42.25c-.28.16-.56.33-.83.51l-.47.32-.7.5-.47.36-.63.52-.45.4-.57.55-.42.42-.53.59-.38.43c-.18.22-.36.45-.53.68l-.41.55c-.21.3-.42.6-.62.91-.2.31-.23.38-.35.58-.12.2-.23.38-.34.58-.11.2-.23.43-.34.64l-.28.55c-.11.23-.21.45-.32.68l-.24.54c-.1.24-.197.48-.29.72l-.19.53c-.09.26-.18.51-.26.77l-.15.5c-.08.28-.17.55-.24.83l-.09.38a33.331 33.331 0 00-1 8.52 29.996 29.996 0 01-1.95-6.57c-.087-.493-.157-.99-.21-1.49v-.11a26.207 26.207 0 01-.16-2.87v-.3-1.37c-.22.33-.42.67-.61 1l-.18.33c-.12.23-.24.46-.35.69l-.18.4c-.093.213-.183.427-.27.64l-.16.42c-.08.22-.15.43-.22.65-.07.22-.09.27-.13.41-.04.14-.15.53-.21.8s-.09.39-.13.59c-.04.2-.09.43-.12.64-.03.21 0 .36-.07.55-.07.19 0 .33-.06.49-.06.16 0 .4 0 .59v1.42c.027 1.166.16 2.328.4 3.47v.17c.06.273.127.547.2.82v.16c.08.28.16.57.25.85l.11.33a19.173 19.173 0 00-18.43 6.64l.05.09z" fill="url(#paint11_linear)" />
    <path d="M859.58 459.5a13.926 13.926 0 00-12.22 7.27c-.16.29-.3.6-.44.9h25.29a14.016 14.016 0 00-2.52-3.77c2.62-6 7.27-10.45 12.59-12.15a11.884 11.884 0 00-1.87-.23h-1l-.74.06h-.14l-.72.11h-.13l-.72.18h-.1c-.26.073-.52.157-.78.25a12.898 12.898 0 00-3.05 1.63l-.09.07-.59.45-.13.11-.54.46-.14.12-.52.5-.12.12-.52.55-.09.1c-.193.213-.38.433-.56.66a22.704 22.704 0 00-2.83 4.57l-.38-.23c0-8.18-2.78-16.07-9.11-20.1-.3-.19-.61-.37-.93-.54l-.14-.08c-.31-.16-.63-.32-1-.46l-.19-.09c-.32-.14-.64-.26-1-.39l-.23-.09c-.41-.14-.82-.27-1.25-.39.29.28.56.57.84.87l.24.27.58.66.24.29c.213.267.423.537.63.81l.12.15c.247.333.483.667.71 1l.15.24c.18.273.353.55.52.83l.18.3c.173.3.343.6.51.9l.11.2c.2.387.397.777.59 1.17v.09c.167.36.33.727.49 1.1l.11.25c.14.347.277.68.41 1l.07.19c.307.847.58 1.717.82 2.61v.17c.107.4.203.8.29 1.2v.17c.2.927.367 1.867.5 2.82.06.453.11.91.15 1.37v.16c0 .47.08 1 .1 1.43h-.4c-.25.19-.63.16-1.05.16z" fill="url(#paint12_linear)" />
    <defs>
        <linearGradient id="paint0_linear" x1="593.62" y1="225.31" x2="585.62" y2="352.67" gradientUnits="userSpaceOnUse">
            <stop offset=".34" stop-color="#356545" />
        </linearGradient>
        <linearGradient id="paint1_linear" x1="579.79" y1="398.56" x2="557.95" y2="527.01" gradientUnits="userSpaceOnUse">
            <stop stop-color="#4A762A" />
        </linearGradient>
        <linearGradient id="paint2_linear" x1="729.59" y1="458.43" x2="719.76" y2="355.09" gradientUnits="userSpaceOnUse">
            <stop stop-color="#7AA35D" />
        </linearGradient>
        <linearGradient id="paint3_linear" x1="1031.66" y1="373.99" x2="1031.66" y2="457.05" gradientUnits="userSpaceOnUse">
            <stop stop-color="#5F8841" />
        </linearGradient>
        <linearGradient id="paint4_linear" x1="317.16" y1="451.82" x2="317.16" y2="467.68" gradientUnits="userSpaceOnUse">
            <stop stop-color="#083216" />
            <stop offset=".54" stop-color="#346444" />
            <stop offset=".89" stop-color="#5F8841" />
            <stop offset="1" stop-color="#7AA35D" />
        </linearGradient>
        <linearGradient id="paint5_linear" x1="111768" y1="33435.7" x2="111768" y2="40970.8" gradientUnits="userSpaceOnUse">
            <stop stop-color="#346444" />
            <stop offset=".54" stop-color="#346444" />
            <stop offset=".89" stop-color="#5F8841" />
            <stop offset="1" stop-color="#7AA35D" />
        </linearGradient>
        <linearGradient id="paint6_linear" x1="25128.9" y1="26263.9" x2="25128.9" y2="30358.7" gradientUnits="userSpaceOnUse">
            <stop stop-color="#346444" />
            <stop offset=".54" stop-color="#346444" />
            <stop offset=".89" stop-color="#5F8841" />
            <stop offset="1" stop-color="#A6CF89" />
        </linearGradient>
        <linearGradient id="paint7_linear" x1="64416.4" y1="23729.7" x2="64416.4" y2="26948.2" gradientUnits="userSpaceOnUse">
            <stop stop-color="#346444" />
            <stop offset=".54" stop-color="#346444" />
            <stop offset=".89" stop-color="#5F8841" />
            <stop offset="1" stop-color="#7AA35D" />
        </linearGradient>
        <linearGradient id="paint8_linear" x1="13548.2" y1="23490.6" x2="13548.2" y2="26634.4" gradientUnits="userSpaceOnUse">
            <stop stop-color="#346444" />
            <stop offset=".54" stop-color="#346444" />
            <stop offset=".89" stop-color="#5F8841" />
            <stop offset="1" stop-color="#7AA35D" />
        </linearGradient>
        <linearGradient id="paint9_linear" x1="25282.4" y1="24656.6" x2="25282.4" y2="28183.8" gradientUnits="userSpaceOnUse">
            <stop stop-color="#346444" />
            <stop offset=".54" stop-color="#346444" />
            <stop offset=".89" stop-color="#5F8841" />
            <stop offset="1" stop-color="#7AA35D" />
        </linearGradient>
        <linearGradient id="paint10_linear" x1="21175" y1="19942" x2="21175" y2="22089" gradientUnits="userSpaceOnUse">
            <stop stop-color="#346444" />
            <stop offset=".54" stop-color="#346444" />
            <stop offset=".89" stop-color="#7AA35D" />
            <stop offset="1" stop-color="#7AA35D" />
        </linearGradient>
        <linearGradient id="paint11_linear" x1="196743" y1="40494.1" x2="196743" y2="53295.8" gradientUnits="userSpaceOnUse">
            <stop stop-color="#346444" />
            <stop offset=".54" stop-color="#346444" />
            <stop offset=".89" stop-color="#5F8841" />
            <stop offset="1" stop-color="#7AA35D" />
        </linearGradient>
        <linearGradient id="paint12_linear" x1="31419.6" y1="12990.9" x2="31419.6" y2="13805.4" gradientUnits="userSpaceOnUse">
            <stop stop-color="#346444" />
            <stop offset=".54" stop-color="#346444" />
            <stop offset=".89" stop-color="#5F8841" />
            <stop offset="1" stop-color="#7AA35D" />
        </linearGradient>
    </defs>
</svg>