<svg focusable="false" class="logo" xmlns="http://www.w3.org/2000/svg" viewBox="0 0 543 547">
    <path fill="var(--color-primary)" d="M20.542 379.479C6.136 343.961-.343 307.356.182 269.461 1.966 140.462 96.659 27.985 222.692 5.167c125.669-22.753 249.743 44.237 299.482 161.902 11.69 27.654 17.855 56.662 20.003 86.619 3.444 48.036-4.719 94.064-25.683 137.24-37.472 77.175-98.335 126.739-181.548 147.568-117.841 29.496-241.886-24.748-300.553-130.43-5.084-9.158-9.768-18.515-13.851-28.587Z" />
    <path class="logo-bg" fill="var(--color-surface)" d="M214.671 428.722c-6.37 2.773-10.061 7.687-14.699 12.44-1.612-18.944 5.287-33.845 17.461-47.026 13.07-14.153 29.956-20.61 47.981-25.073 10.53-2.607 20.737-6.039 30.339-11.917 3.199-4.902 8.355-7.024 12.265-10.617 8.677-7.974 15.856-17.073 21.948-27.046 23.545-38.551 36.673-80.752 43.466-125.131 1.004-6.561 1.828-13.148 3.224-19.643.16-.649-1.121.035-.458-.036.081-.008.12.086.091.278-2.351 15.67-6.863 30.787-12.098 45.674-10.756 30.59-24.3 59.833-42.83 86.593-1.319 1.904-2.38 4.039-4.854 5.359-1.287.796-4.321-1.244-3.047 2.588-1.015 5.607-5.256 8.766-8.628 12.214-5.565 5.691-11.809 10.752-18.683 14.919-1.884 1.141-3.833 2.008-6.448 1.945-2.264-.113-4.629-1.234-5.139 2.415-1.85 2.469-4.123 3.397-7.177 3.402-.694-.113-1.007-.217-1.322-.311-4.6-1.356-18.137 2.135-21.813 5.806-1.65.707-3.044 1.163-4.805 1.662-2.827-1.275-5.305-.749-7.42.568-3.284 2.045-6.559 4.161-9.398 7.186-3.304 2.84-6.607 5.339-10.227 7.949-3.91.618-3.526-1.657-1.929-3.027 2.715-2.33 2.596-4.421 1.773-7.651-.896-3.515-1.183-7.702 3.818-9.359 1.6-.53 2.277-2.328 3.606-3.795.176-.302.255-.186.193-.219 4.22-1.211 8.282-2.848 11.864-6.047 5.596-2.998 11.405-4.713 17.721-6.155.989.164 1.558.164 2.326-.378 19.702-5.212 35.408-16.219 49.021-31.096.971-1.638 1.199-3.483 3.519-3.827 2.849.638 2.205-1.434 2.656-2.958 1.73-5.847 6.649-9.19 9.407-14.382.286-.491.395-.69.69-1.175.316-.471.446-.658.968-1.413.754-1.182 1.132-1.786 1.654-2.746 21.781-32.637 35.014-68.361 43.125-106.117 3.047-14.185 4.639-28.721 4.314-43.131-.567-25.139-5.088-49.643-17.032-72.244-.234-.443-.33-.94-.424-1.833 3.962-3.434 8.028-6.334 11.828-9.55 2.041-1.725 2.774-.862 3.531.99 2.385 5.84 5.005 11.597 7.075 17.547 1.115 3.205 2.774 5.146 5.832 6.775 49.227 26.211 85.665 64.173 106.389 116.456 3.56 8.98 6.136 18.262 8.531 27.991-.288.756-.688.916-1.433.59-24.596-49.507-62.873-83.88-113.038-106.033.204 4.337.472 8.294.54 12.255.031 1.814 1.226 2.614 2.376 3.551 46.335 37.743 74.561 86.426 87.172 144.5 4.44 20.447 6.44 41.248 5.065 62.048-1.083 16.359-7.121 31.823-14.316 46.478-30.654 62.448-80.897 99.951-148.342 114.956-25.693 5.716-51.592 5.021-77.475 1-1.865-.29-3.437-.988-4.868-2.277-7.614-6.856-14.004-14.616-18.9-23.69-3.911-7.247-4.374-14.118.57-21.368 3.237-6.048 8.777-7.343 14.495-7.954 7.192-.768 13.845 1.175 20.089 4.744 6.946 3.969 13.451 8.629 20.332 12.715 17.575 10.434 36.221 13.357 56.254 9.615 25.95-4.848 48.266-16.816 68.102-33.798 29.86-25.563 47.199-58.494 56.236-96.25.116-.487.172-.981.04-1.52-.758-.841-1.477-.173-2.13.178-16.188 8.695-33.299 10.893-51.343 7.858-12.882-2.167-25.437-5.354-37.397-10.586-4.045-1.77-6.411-.812-8.678 2.757-6.448 10.149-13.728 19.594-22.839 27.623-15.316 13.497-33.544 20.777-52.948 25.755-5.803 1.489-11.609 2.89-17.163 5.291-13.115 5.669-23.094 14.952-31.313 26.378-1.749 2.432-3.196 5.081-5.547 7.548-.513.401-.735.54-1.726.782Z" />
    <path class="logo-bg" fill="var(--color-surface)" d="M57 342.473c10.137 12.408 21.487 22.766 36.93 27.392 18.075 5.414 35.183 1.36 51.777-6.206 7.587-3.459 9.484-6.82 8.833-14.996-.218-2.735-2.505-2.202-4.04-2.606-24.684-6.5-46.902-17.686-65.81-34.967-20.123-18.393-34.688-40.218-40.09-67.381-2.084-10.482-2.84-21.094-1.581-32.202 2.62-.44 2.122 1.726 2.453 3.16 10.279 44.474 35.57 77.51 75.667 99.204 9.84 5.324 20.151 9.581 31.002 12.453 5.58 1.477 6.233 1.171 8.039-4.132 2.5-7.347 2.539-7.413-4.258-11.381-12.466-7.278-23.82-15.885-32.916-27.218-2.498-3.112-5.577-4.908-9.528-5.852-10.397-2.482-20.391-6.219-29.984-10.94-2.3-1.132-6.089-2.509-5.226-5.18 1.034-3.203 4.599-1.05 7-.581 8.001 1.563 15.915 3.566 24.359 4.931.161-1.963-1.048-3.191-1.808-4.528-3.71-6.531-7.642-13.102-9.357-20.381-2.291-9.722-8.068-16.449-15.614-22.322-8.475-6.596-15.309-14.797-21.655-23.399-1.373-1.861-2.855-3.732-2.79-6.614.233-.579.38-.787.879-1.151 3.25-.322 4.745 1.898 6.554 3.54 7.616 6.913 15.362 13.665 24.392 20.342-2.925-19.635-2.204-38.317 2.178-56.775 1.913-8.058 3.563-16.267 8.471-23.636.601-.216.865-.224 1.418.041 1.63 2.723.728 5.155.191 7.57-7.447 33.5-4.106 65.866 10.226 97.065.94 2.045 1.625 4.311 3.442 5.908 1.916-1.261 2.079-3.207 2.698-4.853 3.809-10.136 8.164-20.058 11.83-30.249.338-.942.734-1.863 1.35-2.664.52-.675 1.128-1.266 2.062-1.143 1.242.165 1.6 1.159 1.625 2.171.088 3.5-.12 6.988-.643 10.457-1.793 11.899-4.866 23.495-8.74 34.854-1.457 4.27-.915 7.483 1.956 10.968 10.392 12.616 22.74 22.772 37.451 31.177.181-2.835-1.384-4.188-2.487-5.629-15.563-20.332-21.863-43.891-23.837-68.885-3.396-43.003 7.273-83.564 21.7-123.46 4.03-11.145 9.286-21.74 14.199-32.492 1.246-2.728 2.715-5.362 5.505-7.478 3.557-2.067 7.192-2.229 11.306-3.19-9.285 19.564-16.705 39.098-22.56 59.221-9.544 32.8-15.566 66.109-13.538 100.428 1.194 20.214 6.356 39.359 17.665 56.49 2.004 3.035 4.012 6.08 6.306 8.176 9.574-7.051 9.58-15.293 6.382-26.343-10.673-36.877-6.9-73.545 5.886-109.335 11.03-30.876 26.439-59.416 49.957-82.643 18.431-18.204 14.51-15.566 39.087-14.437 22.26 1.022 43.75 6.22 65.222 13.21.73 3.262-2.012 3.757-3.877 4.855-15.849 9.325-32.952 15.935-49.897 22.873-15.893 6.508-31.686 13.277-45.933 22.975-31.218 21.249-46.74 50.999-47.321 88.698-.233 15.131 2.075 29.86 6.523 44.273 1.522 4.934 2.281 5.084 6.509 2.318 2.147-1.404 3.788-3.213 4.99-5.468 13.58-25.48 30.723-48.285 51.612-68.216 3.424-3.266 4.621-7.129 5.166-11.51 1.651-13.258 4.584-26.236 8.669-38.952 1.018-3.172 2.213-6.286 3.717-9.264.6-1.188 1.422-2.749 2.798-2.496 1.804.331 1.793 2.237 1.652 3.716-.507 5.301-1.076 10.598-1.763 15.879-1.135 8.732-1.858 17.515-3.465 26.895 17.15-17.765 33.734-35.165 46.885-55.497 1.252-1.934 2.203-4.146 4.699-5.496.631-.063.887-.029 1.467.219 1.517 2.642.292 4.795-.595 6.89-5.422 12.798-12.86 24.431-20.944 35.666-7.981 11.091-16.678 21.61-25.784 31.795-.973 1.089-2.229 2.027-2.557 4.168 7.378.179 14.576-.911 21.788-1.428 3.16-.227 6.304-.578 9.462-.292 1.432.129 3.334.111 3.569 1.987.219 1.758-1.435 2.515-2.818 3.062a125.614 125.614 0 0 1-19.58 5.93c-6.667 1.444-13.35 2.854-20.213 3.128-2.877.115-5.549.881-7.644 3.132-12.506 13.444-23.944 27.707-33.47 43.445-.256.422-.419.895-.364 1.78 1.879.713 3.738-.236 5.531-.646 23.906-5.461 47.29-3.362 70.286 4.691 2.52.882 4.979 1.906 7.313 3.2.99.549 2.379 1.129 1.937 2.518-.382 1.199-1.769 1.43-2.958 1.449-3.167.049-6.271-.656-9.447-.732-33.034-.797-61.503 10.799-86.757 31.497-11.319 9.277-20.815 20.079-28.772 32.312-1.347 2.071-2.392 4.418-4.941 5.978-9.069 13.588-14.247 28.491-17.369 44.035-9.063 45.118-2.375 87.34 24.134 125.686 1.749 2.53 3.622 4.974 4.989 7.864-73.153-24.014-122.483-72.234-147.614-145.53.114-.555.29-.745.852-.896Z" />
    <path fill="var(--color-primary)" d="M191.96 311.713c5.397-11.713 13.303-21.566 22.332-30.472 18.221-17.974 39.29-31.27 64.324-37.609 14.803-3.749 29.82-4.997 45.081-2.926-13.311-7.232-27.842-10.025-42.642-11.401-15.031-1.397-29.827.791-44.224 4.781-1.111-1.735.108-2.518.623-3.402 10.027-17.224 22.661-32.475 35.91-47.25 2.231-2.487 5.455-2.153 8.376-2.376 13.711-1.045 26.858-4.485 39.724-9.161.591-.215 1.113-.623 1.55-2.025l-38.762 2.488c21.838-25.22 42.912-49.436 55.186-80.057-.075-1.043-.495-1.13-1.303-.57-12.847 22.137-41.555 53.438-53.972 63.697l5.804-48.334c-5.149 8.399-7.635 17.648-9.925 26.945-2.227 9.044-3.677 18.243-4.811 27.48-.26 2.117-.919 3.671-2.465 5.171-21.891 21.247-40.688 44.849-54.558 72.165-2.046 4.029-6.325 5.325-9.717 7.518-2.458 1.588-2.504-1.85-2.976-3.24-6.225-18.348-8.938-37.262-7.302-56.544 2.487-29.299 14.355-54.123 37.085-73.266 15.09-12.709 32.751-20.934 50.743-28.5 19.473-8.19 39.339-15.506 57.636-26.27a22.986 22.986 0 0 0 3.073-2.176c.868-.679 1.59-1.06 2.62-1.428 5.254 4.453 6.803 10.762 8.898 16.597 9.535 26.553 12.498 53.861 8.92 81.911-5.812 45.567-21.198 87.593-46.355 126.345-.999.412-1.334.961-1.63 1.977-.185.289-.189.222-.156.229a4.62 4.62 0 0 0-.864.867c-.144.203-.168.131-.136.151-5.972 6.352-11.732 12.965-19.96 17.177-7.473 3.548-14.045 8.084-21.481 11.06-28.045 11.225-56.127 11.857-84.646.448ZM58.758 187.98c5.67 11.21 14.333 19.729 23.182 28.062 3.507 3.304 7.327 6.275 11.004 9.398 1.27 1.08 2.556 2.13 3.037 3.852 3.651 13.071 9.404 25.225 16.137 36.952.222.388.208.912.449 2.066l-33.798-7.149c5.993 5.475 13.473 7.993 20.771 10.783 4.183 1.598 8.476 3.217 12.863 3.893 5.678.875 9.493 3.814 13.008 8.091 9.539 11.606 21.369 20.495 34.666 27.332 3.629 1.866 4.142 3.788 2.892 7.336-4.486 12.733-1.088 12.625-14.757 8.153-53.674-17.563-88.737-53.278-103.54-108.191-.601-2.232-.782-4.576-1.389-7.172.08-16.327 4.111-31.642 10.258-46.191 24.26-57.43 67.376-93.627 127.198-111.04-9.946 19.79-18.807 40.207-25.381 61.552-8.989 29.187-15.521 58.909-15.052 89.599.413 26.941 5.497 52.915 20.959 75.844 1.952 2.894 4.102 5.656 6.195 8.454 1.028 1.375 2.16 2.79.773 4.448-1.435 1.715-2.778.112-3.922-.539-15.676-8.911-29.028-20.505-40.134-34.727-1.638-2.097-1.095-3.806-.371-5.972 5.329-15.929 9.87-32.04 9.862-49.241l-16.501 42.044c-1.787-.184-2.008-1.491-2.494-2.42-13.653-26.145-19.724-53.783-16.99-83.336.876-9.471 2.856-18.701 4.365-28.423-6.53 12.724-9.23 26.848-11.051 41.211-1.75 13.804-.61 27.545 1.138 42.199-11.844-8.472-22.129-17.501-32.343-27.122-.296-.144-.725-.079-.725-.079s-.352-.238-.439-.218c-.087.021.081.365.13.551ZM214.874 427.872c3.717-5.255 7.059-10.451 10.974-15.172 10.675-12.874 24.368-20.909 40.65-24.706 17.784-4.147 34.878-9.965 49.674-21.184 12.397-9.402 22.124-21.146 30.087-34.386 1.941-3.227 3.72-3.744 7.168-2.155 15.409 7.101 31.713 11.096 48.575 12.45 16.226 1.302 31.375-2.517 45.269-11.449 1.142 1.354.712 2.665.441 3.839-8.343 36.203-24.262 68.356-51.607 94.028-21.425 20.116-46.259 33.923-75.553 39.339-22.803 4.216-43.167-1.198-62.209-13.593-7.372-4.798-14.328-10.428-23.045-12.782-8.889-2.399-17.152-1.377-24.628 5.04-.452-6.074 2.333-11.627 3.383-17.922-.151-.396-.076-.33-.112-.296.31-.171.592-.444.933-1.051Z" />
    <path fill="var(--color-primary)" d="M314.993 312.775c14.187-17.877 24.675-37.671 33.969-58.117a395.617 395.617 0 0 0 21.353-58.931c2.082-7.575 4.051-15.18 6.419-22.716.272 9.581-1.264 19-2.884 28.34-7.323 42.222-20.097 82.53-42.836 119.234-8.945 14.439-19.566 27.291-34.682 36.253-1.314-5.243-5.098-1.745-6.661-1.254-4.418 1.387-8.305.78-11.953-1.45-2.055-1.256-4.068-.969-6.154-1.143-2.199-.185-4.711.771-6.507-2.03-.022-1.536.88-1.579 2.074-1.709a135.488 135.488 0 0 0 7.638-2.539c.659-2.851 3.008-2.668 4.918-3.025 13.789-6.098 24.033-16.485 33.524-28.232-.028-1.422.546-2.116 1.782-2.681Z" />
    <path class="logo-bg" fill="var(--color-surface)" d="M219.509 348.872c.351 2.251-.677 4.123-2.523 5.413-4.34 3.033-4.843 6.7-1.159 10.828 1.106 1.239.32 1.629-.472 2.236-1.31 1.003-2.638 1.984-3.922 3.02-1.025.827-1.758 1.717.338 2.605-10.036 10-19.231 20.805-25.053 34.459-2.857-18.219 12.13-45.001 32.791-58.561Z" />
    <path fill="var(--color-primary)" d="M297.871 300.602c6.417-6.112 12.962-11.864 19.858-17.585-1.872 5.465-6.278 9.362-9.638 14.373-.786 1.644-1.137 3.227-3.077 3.9-1.376 1.131-2.423 2.242-3.768 3.48-1.28-1.185-2.263-2.496-3.375-4.168Z" />
    <path class="logo-bg" fill="var(--color-surface)" d="M267.118 349.004c-.37.535-1.075.864-2.009 1.387a682.737 682.737 0 0 1-20.74 5.414c-.95-3.872 1.999-5.336 4.639-5.453 4.735-.211 9.018-1.775 13.424-3.042 1.91-.549 3.188.155 4.686 1.694ZM222.943 365.212c-1.362-.558-2.469-2.148-1.216-2.474 4.539-1.182 6.606-5.945 11.029-7.08 2.161-.555 4.408-1.735 6.233 1.219-5.184 3-10.457 5.617-16.046 8.335ZM231.466 342.577c-.926 4.112-4.869 6.394-11.238 6.305 2.914-2.882 6.959-4.425 11.238-6.305ZM491.214 216.273c.338-.325.72-.303 1.388-.298.841 1.485 1.829 2.909 1.141 4.691-1.64-.887-1.659-2.716-2.529-4.393ZM57.324 342.225c-.153.371-.369.455-.91.658-1.026-.793-1.458-1.767-1.093-3.47.834 1.085 1.387 1.805 2.003 2.812ZM251.714 336.061c.031 1.031-.183 2.102-1.718.822.378-.459.905-.66 1.718-.822ZM494.532 222.587c.034.078-.073.309-.073.309s.04-.387.073-.309Z" />
    <path fill="var(--color-primary)" d="M423.227 303.86c8.783 1.439 16.981 3.435 25.103 6.144-18.629 24.751-59.906 23.033-86.655-3.379 9.131-4.968 41.35-7.201 61.552-2.765Z" />
    <path class="logo-bg" fill="var(--color-surface)" d="M279.532 343.694c-1.064 1.101-2.462 1.877-4.152 2.731-1.514-.53-2.858-1.358-1.703-2.804 1.581-1.979 3.601-1.815 5.855.073ZM315.149 312.393c-.308 1.063-.816 1.784-1.563 2.625-1.314-.732-3.981-.661-2.706-2.929.897-1.595 2.686-1.358 4.269.304ZM304.834 301.666c.763-1.466 1.673-2.575 2.866-3.829.287 1.169.34 2.486.279 3.798-.042.921.362 2.271-.803 2.556-1.521.373-1.513-1.368-2.342-2.525Z" />
    <path fill="var(--color-primary)" d="M319.317 281.915c.008-.434.315-1.024.939-1.772-.002.433-.321 1.025-.939 1.772ZM214.704 427.752c.14.259-.003.674-.473 1.148-.155-.292.017-.642.473-1.148ZM318.329 283.065c-.138-.32.014-.656.458-1.02.14.317-.014.661-.458 1.02Z" />
    <path fill="var(--color-primary)" d="M338.32 91.94c-.276-.492-.237-1.038.038-1.41.604-.814.781-2.74 2.148-1.96 1.202.687.066 2.013-.707 3.174-.492.207-.774.214-1.479.196ZM341.788 86.064c-.188.13-.369.07-.55.009.185-.066.37-.132.55-.01Z" />
    <path class="logo-bg" fill="var(--color-surface)" d="M102.027 131.033c.12-.435.224-.887.329-1.34.65.334.354.729-.156 1.209-.229.085-.19.114-.173.131ZM58.98 188.02c-.485-.384-.797-.913-1.053-1.721.471.079.886.436 1.435 1.038.134.245-.209.538-.382.683ZM58.022 185.978c-.216-.091-.647-.184-.642-.243.034-.438.237-.472.55.087.054.199.079.17.092.156ZM226.808 428.087c13.301-8.745 28.3-12.527 43.383-15.982 10.534-2.412 21.22-4.045 31.972-5.162 2.937-.305 4.682-1.689 6.18-4.253 6.719-11.495 14.023-22.609 23.233-32.681-3.696 11.672-10.045 22.258-15.512 33.641 11.356.068 21.862-4.146 32.596-7.38 1.553-.467 2.147-1.984 3.017-3.181 7.895-10.863 16.094-21.488 25.01-31.943-.693 6.427-4.775 11.626-7.734 17.309-2.293 4.405-5.072 8.556-7.667 12.871 1.665 1.442 2.895.082 4.083-.422 15.856-6.724 30.806-14.928 43.473-26.831.593-.557 1.375-.914 2.402-1.444.499-.036.666.007.893.3-6.621 9.342-15.288 16.33-24.236 22.978-13.022 9.674-27.164 17.366-42.234 23.363-.755.3-1.458.732-2.846 1.44 14.674 5.167 29.218 8.062 43.873 10.626-15.605 1.537-31.063.815-46.23-2.896-7.544-1.847-14.707-2.706-22.459-.679-10.32 2.697-21.108 2.591-31.713 2.938-19.661.643-39.102 2.527-58.549 7.657-.581.029-.767.019-.935-.269Z" />
    <path fill="var(--color-primary)" d="M414.767 359.258c.372-1.091.772-2.329 1.523-1.816 1.173.801-.134 1.598-.948 2.461-.45-.016-.629-.186-.575-.645Z" />
    <path class="logo-bg" fill="var(--color-surface)" d="M227.219 428.247c-.436.264-1.281.664-1.51.438-.521-.512.27-.571.846-.828.271-.049.534.243.664.39ZM331.804 369.839c.143-.486.38-.897.617-1.308.58.379.365.817-.123 1.397-.213.139-.399-.014-.494-.089ZM414.746 359.029c.259.122.263.304.297.757.029.271-.361.464-.746.301-.192-.441.002-.72.449-1.058ZM377.003 361.016c.09-.015.168-.048.101-.063-.145.017-.113.045-.101.063ZM414.164 360.164c-.122.29-.328.498-.533.707-.042-.246-.084-.491.077-.842.204-.105.372.055.456.135ZM411.728 362.711c.172-.294.496-.428.819-.561.018.239.037.479-.147.874-.202.156-.52-.152-.672-.313Z" />
    <path fill="var(--color-primary)" d="M417.439 355.607c-.055-.084.159-.121.159-.121s-.104.204-.159.121ZM315.991 403.992c-.129-.01.217.927-.141.076.157-.063.148-.07.141-.076Z" />
</svg>